<?xml version="1.0" encoding="UTF-8"?>
<svg width="204px" height="60px" viewBox="0 0 204 60" version="1.1" xmlns="http://www.w3.org/2000/svg" xmlns:xlink="http://www.w3.org/1999/xlink">
    <!-- Generator: Sketch 48.1 (47250) - http://www.bohemiancoding.com/sketch -->
    <title>app-store</title>
    <desc>Created with Sketch.</desc>
    <defs></defs>
    <g id="Page-1" stroke="none" stroke-width="1" fill="none" fill-rule="evenodd">
        <g id="app-store" fill-rule="nonzero">
            <path d="M196.262069,60 L7.13497537,60 C3.21576355,60 0,56.8 0,52.9 L0,7.1 C0,3.2 3.21576355,0 7.13497537,0 L196.262069,0 C200.181281,0 203.497537,3.2 203.497537,7.1 L203.497537,52.9 C203.497537,56.8 200.181281,60 196.262069,60 Z" id="Shape" fill="#A6A6A6"></path>
            <path d="M201.990148,52.9 C201.990148,56.1 199.37734,58.6 196.161576,58.6 L7.13497537,58.6 C3.91921182,58.6 1.30640394,56 1.30640394,52.9 L1.30640394,7.1 C1.30640394,3.9 3.91921182,1.3 7.13497537,1.3 L196.262069,1.3 C199.477833,1.3 202.09064,3.9 202.09064,7.1 L201.990148,52.9 Z" id="Shape" fill="#FFFFFF"></path>
            <g id="Group" transform="translate(19.093596, 9.000000)" fill="#2E2E2E">
                <path d="M26.329064,20.7 C26.329064,15.9 30.3487685,13.5 30.4492611,13.4 C28.137931,10.1 24.6206897,9.6 23.4147783,9.6 C20.4,9.3 17.5862069,11.4 16.0788177,11.4 C14.5714286,11.4 12.2600985,9.7 9.74778325,9.7 C6.5320197,9.7 3.51724138,11.6 1.808867,14.5 C-1.60788177,20.4 0.904433498,29 4.22068966,33.8 C5.82857143,36.1 7.73793103,38.7 10.2502463,38.6 C12.662069,38.5 13.5665025,37 16.5812808,37 C19.4955665,37 20.4,38.6 22.9123153,38.5 C25.5251232,38.5 27.2334975,36.2 28.7408867,33.8 C30.6502463,31.1 31.3536946,28.5 31.4541872,28.4 C31.4541872,28.4 26.329064,26.5 26.329064,20.7 Z" id="Shape"></path>
                <path d="M21.5054187,6.5 C22.8118227,4.9 23.7162562,2.6 23.5152709,0.4 C21.6059113,0.5 19.1940887,1.7 17.8876847,3.3 C16.6817734,4.7 15.5763547,7 15.8778325,9.2 C17.8876847,9.3 20.0985222,8.1 21.5054187,6.5 Z" id="Shape"></path>
            </g>
            <g id="Group" transform="translate(63.310345, 27.000000)" fill="#2E2E2E">
                <path d="M17.5862069,20.3 L14.1694581,20.3 L12.2600985,14.4 L5.72807882,14.4 L3.91921182,20.3 L0.602955665,20.3 L7.03448276,0.3 L11.0541872,0.3 L17.5862069,20.3 Z M11.6571429,11.9 L9.94876847,6.7 C9.74778325,6.2 9.44630542,4.9 8.94384236,2.9 L8.84334975,2.9 C8.64236453,3.7 8.3408867,5 7.93891626,6.7 L6.23054187,11.9 L11.6571429,11.9 Z" id="Shape"></path>
                <path d="M34.1674877,12.9 C34.1674877,15.3 33.4640394,17.3 32.1576355,18.7 C30.9517241,20 29.444335,20.6 27.7359606,20.6 C25.826601,20.6 24.4197044,19.9 23.6157635,18.6 L23.5152709,18.6 L23.5152709,26.2 L20.2995074,26.2 L20.2995074,10.6 C20.2995074,9.1 20.2995074,7.5 20.1990148,5.9 L23.0128079,5.9 L23.2137931,8.2 L23.3142857,8.2 C24.4197044,6.5 26.0275862,5.6 28.2384236,5.6 C29.946798,5.6 31.3536946,6.3 32.4591133,7.6 C33.564532,8.9 34.1674877,10.7 34.1674877,12.9 Z M30.8512315,13 C30.8512315,11.6 30.5497537,10.4 29.946798,9.5 C29.2433498,8.6 28.3389163,8.1 27.1330049,8.1 C26.329064,8.1 25.6256158,8.4 25.0226601,8.9 C24.4197044,9.4 23.9172414,10.1 23.7162562,11 C23.6157635,11.4 23.6157635,11.7 23.6157635,12 L23.6157635,14.4 C23.6157635,15.4 23.9172414,16.3 24.6206897,17.1 C25.2236453,17.8 26.1280788,18.2 27.1330049,18.2 C28.3389163,18.2 29.2433498,17.7 29.946798,16.8 C30.5497537,15.7 30.8512315,14.5 30.8512315,13 Z" id="Shape"></path>
                <path d="M50.7487685,12.9 C50.7487685,15.3 50.0453202,17.3 48.7389163,18.7 C47.5330049,20 46.0256158,20.6 44.3172414,20.6 C42.4078818,20.6 41.0009852,19.9 40.1970443,18.6 L40.1970443,26.2 L36.9812808,26.2 L36.9812808,10.6 C36.9812808,9.1 36.9812808,7.5 36.8807882,5.9 L39.6945813,5.9 L39.8955665,8.2 L39.9960591,8.2 C41.1014778,6.5 42.7093596,5.6 44.920197,5.6 C46.6285714,5.6 48.035468,6.3 49.2413793,7.6 C50.2463054,8.9 50.7487685,10.7 50.7487685,12.9 Z M47.5330049,13 C47.5330049,11.6 47.2315271,10.4 46.6285714,9.5 C45.9251232,8.6 45.0206897,8.1 43.8147783,8.1 C43.0108374,8.1 42.3073892,8.4 41.7044335,8.9 C41.1014778,9.4 40.5990148,10.1 40.3980296,11 C40.2975369,11.4 40.2975369,11.7 40.2975369,12 L40.2975369,14.4 C40.2975369,15.4 40.5990148,16.3 41.3024631,17.1 C41.9054187,17.8 42.8098522,18.2 43.8147783,18.2 C45.0206897,18.2 45.9251232,17.7 46.6285714,16.8 C47.2315271,15.7 47.5330049,14.5 47.5330049,13 Z" id="Shape"></path>
                <path d="M69.4403941,14.7 C69.4403941,16.4 68.8374384,17.8 67.6315271,18.8 C66.3251232,20 64.5162562,20.5 62.2049261,20.5 C60.0945813,20.5 58.2857143,20.1 56.9793103,19.3 L57.6827586,16.6 C59.0896552,17.4 60.5970443,17.9 62.3054187,17.9 C63.51133,17.9 64.4157635,17.6 65.1192118,17.1 C65.8226601,16.6 66.1241379,15.8 66.1241379,14.9 C66.1241379,14.1 65.8226601,13.4 65.320197,12.9 C64.7172414,12.3 63.8128079,11.8 62.5064039,11.4 C58.9891626,10.1 57.2807882,8.2 57.2807882,5.7 C57.2807882,4.1 57.8837438,2.7 59.0896552,1.7 C60.2955665,0.7 61.9034483,0.1 64.0137931,0.1 C65.8226601,0.1 67.3300493,0.4 68.5359606,1 L67.7320197,3.6 C66.626601,3 65.320197,2.7 63.9133005,2.7 C62.8078818,2.7 61.9034483,3 61.3004926,3.5 C60.7980296,4 60.4965517,4.6 60.4965517,5.3 C60.4965517,6.1 60.7980296,6.7 61.4009852,7.3 C61.9034483,7.8 62.9083744,8.3 64.3152709,8.8 C66.0236453,9.5 67.3300493,10.3 68.1339901,11.2 C69.0384236,12.1 69.4403941,13.3 69.4403941,14.7 Z" id="Shape"></path>
                <path d="M79.9921182,8.3 L76.4748768,8.3 L76.4748768,15.3 C76.4748768,17.1 77.0778325,18 78.3842365,18 C78.9871921,18 79.3891626,18 79.791133,17.9 L79.8916256,20.3 C79.28867,20.5 78.3842365,20.7 77.3793103,20.7 C76.0729064,20.7 75.1684729,20.3 74.364532,19.5 C73.6610837,18.7 73.2591133,17.4 73.2591133,15.6 L73.2591133,8.3 L71.1487685,8.3 L71.1487685,5.9 L73.2591133,5.9 L73.2591133,3.3 L76.3743842,2.4 L76.3743842,6 L79.8916256,6 C79.9921182,5.9 79.9921182,8.3 79.9921182,8.3 Z" id="Shape"></path>
                <path d="M95.9704433,12.9 C95.9704433,15.1 95.3674877,16.9 94.0610837,18.3 C92.7546798,19.8 90.9458128,20.5 88.7349754,20.5 C86.6246305,20.5 84.9162562,19.8 83.7103448,18.4 C82.5044335,17 81.8009852,15.2 81.8009852,13.1 C81.8009852,10.9 82.4039409,9 83.7103448,7.6 C85.0167488,6.2 86.7251232,5.5 88.9359606,5.5 C91.0463054,5.5 92.7546798,6.2 94.0610837,7.6 C95.3674877,9 95.9704433,10.8 95.9704433,12.9 Z M92.6541872,13 C92.6541872,11.7 92.3527094,10.5 91.7497537,9.6 C91.0463054,8.5 90.1418719,7.9 88.835468,7.9 C87.529064,7.9 86.5241379,8.5 85.9211823,9.6 C85.3182266,10.6 85.0167488,11.7 85.0167488,13.1 C85.0167488,14.4 85.3182266,15.6 85.9211823,16.5 C86.6246305,17.6 87.6295567,18.2 88.835468,18.2 C90.0413793,18.2 91.0463054,17.6 91.7497537,16.4 C92.3527094,15.5 92.6541872,14.4 92.6541872,13 Z" id="Shape"></path>
                <path d="M106.421675,8.7 C106.120197,8.6 105.718227,8.6 105.416749,8.6 C104.31133,8.6 103.406897,9 102.803941,9.9 C102.301478,10.7 102,11.6 102,12.7 L102,20.3 L98.7842365,20.3 L98.7842365,10.4 C98.7842365,8.7 98.7842365,7.2 98.6837438,5.9 L101.497537,5.9 L101.59803,8.7 L101.698522,8.7 C102,7.8 102.602956,7 103.306404,6.4 C104.009852,5.9 104.813793,5.6 105.617734,5.6 C105.919212,5.6 106.22069,5.6 106.421675,5.7 C106.421675,5.6 106.421675,8.7 106.421675,8.7 Z" id="Shape"></path>
                <path d="M120.792118,12.4 C120.792118,13 120.792118,13.5 120.691626,13.9 L111.044335,13.9 C111.044335,15.3 111.546798,16.4 112.451232,17.2 C113.255172,17.9 114.360591,18.2 115.566502,18.2 C116.973399,18.2 118.279803,18 119.485714,17.5 L119.988177,19.7 C118.581281,20.3 116.973399,20.6 115.164532,20.6 C112.953695,20.6 111.144828,19.9 109.838424,18.6 C108.53202,17.3 107.929064,15.5 107.929064,13.3 C107.929064,11.1 108.53202,9.3 109.737931,7.9 C110.943842,6.4 112.652217,5.6 114.762562,5.6 C116.872906,5.6 118.380296,6.4 119.485714,7.9 C120.390148,9.1 120.792118,10.6 120.792118,12.4 Z M117.77734,11.5 C117.77734,10.6 117.576355,9.7 117.174384,9 C116.571429,8.1 115.767488,7.7 114.662069,7.7 C113.657143,7.7 112.752709,8.1 112.149754,9 C111.647291,9.7 111.345813,10.5 111.24532,11.5 L117.77734,11.5 Z" id="Shape"></path>
            </g>
            <g id="Group" transform="translate(65.320197, 9.000000)" fill="#2E2E2E">
                <path d="M8.64236453,6 C8.64236453,7.8 8.13990148,9.1 7.03448276,10 C6.02955665,10.8 4.6226601,11.2 2.8137931,11.2 C1.90935961,11.2 1.10541872,11.2 0.502463054,11.1 L0.502463054,1.5 C1.30640394,1.4 2.21083744,1.3 3.21576355,1.3 C4.92413793,1.3 6.23054187,1.7 7.13497537,2.4 C8.13990148,3.2 8.64236453,4.4 8.64236453,6 Z M6.93399015,6.1 C6.93399015,5 6.63251232,4.1 6.02955665,3.5 C5.42660099,2.9 4.52216749,2.6 3.31625616,2.6 C2.8137931,2.6 2.41182266,2.6 2.00985222,2.7 L2.00985222,10 C2.21083744,10 2.51231527,10 3.11527094,10 C4.32118227,10 5.22561576,9.7 5.92906404,9 C6.63251232,8.3 6.93399015,7.3 6.93399015,6.1 Z" id="Shape"></path>
                <path d="M17.4857143,7.6 C17.4857143,8.7 17.1842365,9.6 16.5812808,10.3 C15.8778325,11 15.0738916,11.4 13.9684729,11.4 C12.9635468,11.4 12.0591133,11.1 11.4561576,10.4 C10.853202,9.7 10.5517241,8.8 10.5517241,7.8 C10.5517241,6.7 10.853202,5.8 11.5566502,5.1 C12.1596059,4.4 13.0640394,4.1 14.1694581,4.1 C15.1743842,4.1 16.0788177,4.4 16.6817734,5.1 C17.1842365,5.6 17.4857143,6.5 17.4857143,7.6 Z M15.7773399,7.6 C15.7773399,6.9 15.6768473,6.4 15.3753695,5.9 C15.0738916,5.3 14.5714286,5.1 13.9684729,5.1 C13.3655172,5.1 12.8630542,5.4 12.5615764,5.9 C12.2600985,6.4 12.1596059,6.9 12.1596059,7.6 C12.1596059,8.3 12.2600985,8.8 12.5615764,9.3 C12.8630542,9.9 13.3655172,10.1 13.9684729,10.1 C14.5714286,10.1 15.0738916,9.8 15.3753695,9.2 C15.6768473,8.8 15.7773399,8.3 15.7773399,7.6 Z" id="Shape"></path>
                <path d="M29.2433498,4.1 L27.0325123,11.2 L25.6256158,11.2 L24.7211823,8.1 C24.520197,7.3 24.3192118,6.6 24.1182266,5.8 C24.017734,6.6 23.8167488,7.3 23.5152709,8.1 L22.5103448,11.2 L21.1034483,11.2 L18.9931034,4.1 L20.6009852,4.1 L21.4049261,7.5 C21.6059113,8.3 21.8068966,9.1 21.9073892,9.8 C22.0078818,9.2 22.208867,8.5 22.5103448,7.5 L23.5152709,4.1 L24.8216749,4.1 L25.826601,7.4 C26.0275862,8.2 26.2285714,9 26.4295567,9.7 C26.5300493,9 26.7310345,8.2 26.9320197,7.4 L27.8364532,4.1 L29.2433498,4.1 Z" id="Shape"></path>
                <path d="M37.4837438,11.1 L35.8758621,11.1 L35.8758621,7 C35.8758621,5.8 35.373399,5.1 34.4689655,5.1 C33.9665025,5.1 33.6650246,5.3 33.3635468,5.6 C33.062069,5.9 32.9615764,6.3 32.9615764,6.8 L32.9615764,11 L31.3536946,11 L31.3536946,6 C31.3536946,5.4 31.3536946,4.7 31.253202,4 L32.6600985,4 L32.7605911,5.1 C32.9615764,4.8 33.2630542,4.5 33.564532,4.2 C33.9665025,3.9 34.4689655,3.8 34.9714286,3.8 C35.6748768,3.8 36.1773399,4 36.5793103,4.4 C37.0817734,4.9 37.3832512,5.7 37.3832512,6.7 L37.3832512,11.1 L37.4837438,11.1 Z" id="Shape"></path>
                <polygon id="Shape" points="41.8049261 11.1 40.1970443 11.1 40.1970443 0.8 41.8049261 0.8"></polygon>
                <path d="M51.1507389,7.6 C51.1507389,8.7 50.8492611,9.6 50.2463054,10.3 C49.5428571,11 48.7389163,11.4 47.6334975,11.4 C46.6285714,11.4 45.7241379,11.1 45.1211823,10.4 C44.5182266,9.7 44.2167488,8.8 44.2167488,7.8 C44.2167488,6.7 44.5182266,5.8 45.2216749,5.1 C45.8246305,4.4 46.729064,4.1 47.8344828,4.1 C48.8394089,4.1 49.7438424,4.4 50.346798,5.1 C50.8492611,5.6 51.1507389,6.5 51.1507389,7.6 Z M49.5428571,7.6 C49.5428571,6.9 49.4423645,6.4 49.1408867,5.9 C48.8394089,5.3 48.3369458,5.1 47.7339901,5.1 C47.1310345,5.1 46.6285714,5.4 46.3270936,5.9 C46.0256158,6.4 45.9251232,6.9 45.9251232,7.6 C45.9251232,8.3 46.0256158,8.8 46.3270936,9.3 C46.6285714,9.9 47.1310345,10.1 47.7339901,10.1 C48.3369458,10.1 48.8394089,9.8 49.1408867,9.2 C49.3418719,8.8 49.5428571,8.3 49.5428571,7.6 Z" id="Shape"></path>
                <path d="M58.7881773,11.1 L57.3812808,11.1 L57.2807882,10.3 C56.7783251,10.9 56.0748768,11.3 55.1704433,11.3 C54.4669951,11.3 53.964532,11.1 53.5625616,10.7 C53.1605911,10.3 52.9596059,9.8 52.9596059,9.3 C52.9596059,8.4 53.3615764,7.8 54.0650246,7.3 C54.7684729,6.8 55.773399,6.6 57.079803,6.6 L57.079803,6.5 C57.079803,5.6 56.5773399,5.1 55.5724138,5.1 C54.8689655,5.1 54.2660099,5.3 53.7635468,5.6 L53.462069,4.6 C54.1655172,4.2 54.9694581,4 55.8738916,4 C57.6827586,4 58.6876847,5 58.6876847,6.9 L58.6876847,9.5 C58.6876847,10.2 58.6876847,10.7 58.7881773,11.1 Z M57.1802956,8.7 L57.1802956,7.6 C55.4719212,7.6 54.5674877,8 54.5674877,9 C54.5674877,9.4 54.6679803,9.6 54.8689655,9.8 C55.0699507,10 55.3714286,10.1 55.6729064,10.1 C55.9743842,10.1 56.3763547,10 56.6778325,9.8 C56.9793103,9.6 57.1802956,9.3 57.1802956,9 C57.1802956,8.9 57.1802956,8.8 57.1802956,8.7 Z" id="Shape"></path>
                <path d="M67.7320197,11.1 L66.3251232,11.1 L66.3251232,10 C65.9231527,10.9 65.1192118,11.3 64.0137931,11.3 C63.1093596,11.3 62.4059113,11 61.9034483,10.3 C61.3004926,9.6 61.0995074,8.8 61.0995074,7.7 C61.0995074,6.6 61.4009852,5.6 62.0039409,4.9 C62.6068966,4.2 63.3103448,3.9 64.2147783,3.9 C65.1192118,3.9 65.8226601,4.2 66.2246305,4.9 L66.2246305,0.8 L67.8325123,0.8 L67.8325123,9.2 C67.7320197,9.9 67.7320197,10.6 67.7320197,11.1 Z M66.1241379,8.2 L66.1241379,7 C66.1241379,6.8 66.1241379,6.6 66.1241379,6.5 C66.0236453,6.1 65.8226601,5.8 65.5211823,5.5 C65.2197044,5.2 64.9182266,5.1 64.4157635,5.1 C63.8128079,5.1 63.4108374,5.3 63.008867,5.8 C62.7073892,6.3 62.5064039,6.9 62.5064039,7.6 C62.5064039,8.3 62.7073892,8.9 63.008867,9.3 C63.3103448,9.8 63.8128079,10 64.4157635,10 C64.9182266,10 65.320197,9.8 65.6216749,9.4 C65.9231527,9.1 66.1241379,8.7 66.1241379,8.2 Z" id="Shape"></path>
                <path d="M81.2985222,7.6 C81.2985222,8.7 80.9970443,9.6 80.3940887,10.3 C79.6906404,11 78.8866995,11.4 77.7812808,11.4 C76.7763547,11.4 75.8719212,11.1 75.2689655,10.4 C74.6660099,9.7 74.364532,8.8 74.364532,7.8 C74.364532,6.7 74.6660099,5.8 75.3694581,5.1 C75.9724138,4.4 76.8768473,4.1 77.982266,4.1 C78.9871921,4.1 79.8916256,4.4 80.4945813,5.1 C80.9970443,5.6 81.2985222,6.5 81.2985222,7.6 Z M79.5901478,7.6 C79.5901478,6.9 79.4896552,6.4 79.1881773,5.9 C78.8866995,5.3 78.3842365,5.1 77.7812808,5.1 C77.1783251,5.1 76.6758621,5.4 76.3743842,5.9 C76.0729064,6.4 75.9724138,6.9 75.9724138,7.6 C75.9724138,8.3 76.0729064,8.8 76.3743842,9.3 C76.6758621,9.9 77.1783251,10.1 77.7812808,10.1 C78.3842365,10.1 78.8866995,9.8 79.1881773,9.2 C79.4896552,8.8 79.5901478,8.3 79.5901478,7.6 Z" id="Shape"></path>
                <path d="M89.7399015,11.1 L88.1320197,11.1 L88.1320197,7 C88.1320197,5.8 87.6295567,5.1 86.7251232,5.1 C86.2226601,5.1 85.9211823,5.3 85.6197044,5.6 C85.3182266,5.9 85.217734,6.3 85.217734,6.8 L85.217734,11 L83.6098522,11 L83.6098522,6 C83.6098522,5.4 83.6098522,4.7 83.5093596,4 L84.9162562,4 L85.0167488,5.1 C85.217734,4.8 85.5192118,4.5 85.8206897,4.2 C86.2226601,3.9 86.7251232,3.8 87.2275862,3.8 C87.9310345,3.8 88.4334975,4 88.835468,4.4 C89.337931,4.9 89.6394089,5.7 89.6394089,6.7 L89.6394089,11.1 L89.7399015,11.1 Z" id="Shape"></path>
                <path d="M100.392118,5.3 L98.6837438,5.3 L98.6837438,8.7 C98.6837438,9.6 98.9852217,10 99.5881773,10 C99.8896552,10 100.09064,10 100.291626,9.9 L100.291626,11.1 C99.9901478,11.2 99.5881773,11.3 99.0857143,11.3 C98.4827586,11.3 97.9802956,11.1 97.5783251,10.7 C97.1763547,10.3 97.0758621,9.7 97.0758621,8.8 L97.0758621,5.2 L96.070936,5.2 L96.070936,4 L97.0758621,4 L97.0758621,2.7 L98.5832512,2.2 L98.5832512,4 L100.291626,4 L100.392118,5.3 Z" id="Shape"></path>
                <path d="M108.733005,11.1 L107.125123,11.1 L107.125123,7.1 C107.125123,5.8 106.62266,5.2 105.718227,5.2 C105.014778,5.2 104.512315,5.6 104.210837,6.3 C104.210837,6.5 104.110345,6.6 104.110345,6.9 L104.110345,11.2 L102.502463,11.2 L102.502463,0.8 L104.110345,0.8 L104.110345,5.1 C104.612808,4.3 105.316256,3.9 106.22069,3.9 C106.924138,3.9 107.426601,4.1 107.828571,4.5 C108.331034,5 108.632512,5.8 108.632512,6.9 C108.733005,6.9 108.733005,11.1 108.733005,11.1 Z" id="Shape"></path>
                <path d="M117.375369,7.3 C117.375369,7.6 117.375369,7.8 117.274877,8 L112.551724,8 C112.551724,8.7 112.752709,9.2 113.255172,9.6 C113.657143,9.9 114.159606,10.1 114.762562,10.1 C115.46601,10.1 116.068966,10 116.671921,9.8 L116.872906,10.9 C116.169458,11.2 115.365517,11.3 114.461084,11.3 C113.355665,11.3 112.451232,11 111.848276,10.3 C111.24532,9.7 110.943842,8.8 110.943842,7.7 C110.943842,6.6 111.24532,5.7 111.848276,5 C112.451232,4.2 113.255172,3.9 114.360591,3.9 C115.365517,3.9 116.169458,4.3 116.671921,5 C117.174384,5.7 117.375369,6.4 117.375369,7.3 Z M115.86798,6.9 C115.86798,6.4 115.767488,6 115.566502,5.7 C115.265025,5.3 114.863054,5 114.260099,5 C113.757635,5 113.355665,5.2 112.953695,5.6 C112.652217,5.9 112.551724,6.3 112.451232,6.8 C112.551724,6.9 115.86798,6.9 115.86798,6.9 Z" id="Shape"></path>
            </g>
        </g>
    </g>
</svg>