<?xml version="1.0" encoding="UTF-8"?>
<svg width="265px" height="80px" viewBox="0 0 265 80" version="1.1" xmlns="http://www.w3.org/2000/svg" xmlns:xlink="http://www.w3.org/1999/xlink">
    <!-- Generator: Sketch 49.3 (51167) - http://www.bohemiancoding.com/sketch -->
    <title>Jaywalk Logo Horizontal 1 color Copy</title>
    <desc>Created with Sketch.</desc>
    <defs></defs>
    <g id="Jaywalk-Logo-Horizontal-1-color-Copy" stroke="none" stroke-width="1" fill="none" fill-rule="evenodd">
        <g id="Page-1" transform="translate(7.647059, 7.647059)" fill="#F80759">
            <path d="M11.5608661,14.4538382 C10.7349929,13.6278676 10.3218946,12.6453088 10.3218946,11.5042206 C10.3218946,10.3637794 10.7349929,9.38025 11.5608661,8.55460294 C12.3867393,7.72863235 13.3691823,7.31580882 14.510136,7.31580882 C15.6501192,7.31580882 16.6335326,7.72863235 17.4590823,8.55460294 C18.2849555,9.38025 18.6977304,10.3637794 18.6977304,11.5042206 C18.6977304,12.6453088 18.2849555,13.6278676 17.4590823,14.4538382 C16.6335326,15.2798088 15.6501192,15.6923088 14.510136,15.6923088 C13.3691823,15.6923088 12.3867393,15.2798088 11.5608661,14.4538382 M11.2658421,53.5656324 L11.2658421,20.7070147 L17.8721807,20.7070147 L17.8721807,53.8014853 C17.8721807,57.1050441 16.8784155,59.7301618 14.8934731,61.6771618 C12.9072367,63.6235147 10.5082255,64.5970147 7.69740993,64.5970147 C4.88627085,64.5970147 2.32066163,63.5546029 -6.46982528e-05,61.4704265 L3.06663249,56.51525 C4.40426886,57.81325 5.75063951,58.4619265 7.10703838,58.4619265 C8.46408423,58.4619265 9.49602136,58.0287206 10.2041437,57.16425 C10.9119426,56.2984853 11.2658421,55.0991618 11.2658421,53.5656324" id="Fill-1"></path>
            <path d="M43.8837897,40.4101176 L43.8837897,37.7555588 L36.4515779,37.7555588 C31.6930214,37.7555588 29.3143902,39.2505882 29.3143902,42.2387059 C29.3143902,43.7728824 29.9044382,44.9434118 31.0842109,45.749 C32.26366,46.5555588 33.9050547,46.9583529 36.0090419,46.9583529 C38.1123821,46.9583529 39.9511064,46.3682353 41.5242444,45.1886471 C43.0967355,44.0087353 43.8837897,42.4156765 43.8837897,40.4101176 Z M50.4904518,52.0908235 L44.4735143,52.0908235 L44.4735143,47.9020882 C41.8784674,51.0095882 38.3980249,52.5628529 34.0334807,52.5628529 C30.7688069,52.5628529 28.0660374,51.6388529 25.9229078,49.7898824 C23.7791312,47.9415588 22.7080516,45.474 22.7080516,42.3865588 C22.7080516,39.2994412 23.8480348,36.9887941 26.1292952,35.4549412 C28.4095851,33.9210882 31.4969857,33.154 35.3898796,33.154 L43.9429886,33.154 L43.9429886,31.9744118 C43.9429886,27.8063824 41.6222623,25.7212353 36.9827506,25.7212353 C34.0719762,25.7212353 31.0444215,26.7830588 27.8991159,28.9067059 L24.949846,24.7771765 C28.7634846,21.7492647 33.0895332,20.2351471 37.9263746,20.2351471 C41.6222623,20.2351471 44.6404358,21.1695 46.9805716,23.0369118 C49.3197369,24.9052941 50.4904518,27.8448824 50.4904518,31.8563235 L50.4904518,52.0908235 Z" id="Fill-4"></path>
            <path d="M60.9302589,64.5971118 C58.059274,64.5971118 55.4642271,63.5543765 53.1441477,61.4705235 L56.152293,56.1018765 C57.5281013,57.3998765 58.9543743,58.0488765 60.4288475,58.0488765 C61.9036442,58.0488765 63.1028263,57.5179647 64.0270408,56.4561412 C64.9506084,55.3943176 65.4132009,54.2338176 65.4132009,52.9752882 C65.4132009,52.4243176 61.1854936,41.6695529 52.7313729,20.7071118 L59.8096852,20.7071118 L69.1880204,43.8317 L78.5670027,20.7071118 L85.6449915,20.7071118 L70.4266685,57.9899941 C69.5218634,60.0340529 68.22434,61.6474941 66.5337746,62.8270824 C64.8428858,64.0069941 62.9744002,64.5971118 60.9302589,64.5971118" id="Fill-6"></path>
            <polygon id="Fill-8" points="103.162917 52.0906618 95.6129543 52.0906618 84.7594989 20.7070147 91.6019861 20.7070147 99.3880974 44.4217206 107.173885 20.7070147 114.016372 20.7070147 121.802484 44.4217206 129.588271 20.7070147 136.430759 20.7070147 125.577303 52.0906618 118.027341 52.0906618 110.595452 30.6176912"></polygon>
            <path d="M158.431917,40.4101176 L158.431917,37.7555588 L150.999705,37.7555588 C146.241149,37.7555588 143.862517,39.2505882 143.862517,42.2387059 C143.862517,43.7728824 144.452565,44.9434118 145.632338,45.749 C146.811787,46.5555588 148.453182,46.9583529 150.557493,46.9583529 C152.660509,46.9583529 154.499557,46.3682353 156.072695,45.1886471 C157.644863,44.0087353 158.431917,42.4156765 158.431917,40.4101176 Z M165.038256,52.0908235 L159.021642,52.0908235 L159.021642,47.9020882 C156.426595,51.0095882 152.946476,52.5628529 148.581608,52.5628529 C145.316934,52.5628529 142.613841,51.6388529 140.471035,49.7898824 C138.327258,47.9415588 137.256179,45.474 137.256179,42.3865588 C137.256179,39.2994412 138.396162,36.9887941 140.677422,35.4549412 C142.957712,33.9210882 146.045113,33.154 149.938007,33.154 L158.491116,33.154 L158.491116,31.9744118 C158.491116,27.8063824 156.17039,25.7212353 151.530878,25.7212353 C148.620103,25.7212353 145.592872,26.7830588 142.44692,28.9067059 L139.497973,24.7771765 C143.311612,21.7492647 147.63766,20.2351471 152.474502,20.2351471 C156.17039,20.2351471 159.188563,21.1695 161.528699,23.0369118 C163.867864,24.9052941 165.038256,27.8448824 165.038256,31.8563235 L165.038256,52.0908235 Z" id="Fill-10"></path>
            <polygon id="Fill-12" points="171.88029 52.0908235 178.486629 52.0908235 178.486629 8.31858824 171.88029 8.31858824"></polygon>
            <polygon id="Fill-14" points="192.288254 52.0906618 185.681915 52.0906618 185.681915 8.31842647 192.288254 8.31842647 192.288254 34.0390147 205.029281 20.7070147 213.523191 20.7070147 201.608037 33.1541618 214.407616 52.0906618 206.38568 52.0906618 197.06622 38.3458382 192.288254 43.1829265"></polygon>
            <path d="M233.389016,6.27999706 C232.804791,5.26864412 232.66019,4.21232059 232.955538,3.11005588 C233.250562,2.00876176 233.904338,1.16564412 234.915571,0.581997059 C235.927128,-0.00229705882 236.98268,-0.146591176 238.085139,0.148791176 C239.185979,0.443526471 240.028998,1.09705588 240.612899,2.10840882 C241.196801,3.12008529 241.341078,4.17705588 241.046054,5.27835 C240.750707,6.38093824 240.097578,7.22276176 239.086021,7.80705588 C238.074787,8.39070294 237.018264,8.53499706 235.9171,8.23993824 C234.814965,7.94455588 233.972918,7.29167353 233.389016,6.27999706 M226.331407,31.4822912 L231.485593,12.2439382 L237.866782,13.9541147 L232.651456,33.4205559 C231.796468,36.6115265 230.157338,38.8901441 227.736006,40.2567324 C225.313704,41.6226735 222.744859,41.9423206 220.029474,41.2143794 C217.314412,40.4867618 215.105613,38.8154088 213.403402,36.2019382 L217.648255,32.2095853 C218.604171,33.8094382 219.737038,34.7845559 221.047177,35.1355853 C222.35764,35.4869382 223.466892,35.3355265 224.374608,34.6836147 C225.282001,34.0307324 225.934483,32.9640559 226.331407,31.4822912" id="Fill-15"></path>
            <path d="M229.405092,32.9025853 L233.93591,34.1167912 C235.417177,34.5137618 236.484051,35.1659971 237.136533,36.0741441 C237.788368,36.9816441 237.940085,38.0907029 237.588774,39.4016441 C237.237786,40.7122618 236.262459,41.8449382 234.662795,42.8009676 L238.655001,47.0463206 C241.268163,45.3435853 242.939319,43.13485 243.666851,40.4191441 C244.394383,37.7040853 244.07542,35.1342912 242.709317,32.7120265 C241.342566,30.2904088 239.064217,28.6510853 235.873623,27.7959971 L231.114743,26.5206441 L229.405092,32.9025853 Z" id="Fill-16"></path>
            <path d="M223.964163,22.9834647 L224.935607,19.3583176 C225.252952,18.1732294 225.774743,17.3194353 226.500981,16.7972588 C227.227219,16.2760529 228.114232,16.1547294 229.162667,16.4355529 C230.211102,16.7163765 231.116878,17.4967294 231.882258,18.7766118 L235.277946,15.5827294 C233.916048,13.4917588 232.149139,12.1546118 229.976895,11.5722588 C227.804651,10.9905529 225.749511,11.2461412 223.811475,12.3390235 C221.874733,13.4322294 220.563299,15.2549941 219.879438,17.8076412 L218.859471,21.6152588 L223.964163,22.9834647 Z" id="Fill-17"></path>
            <path d="M245.623229,14.8399382 L242.96963,17.49385 C242.10235,18.3612324 241.223748,18.8394088 240.3335,18.9287029 C239.444222,19.01735 238.615114,18.6786147 237.847793,17.9108794 C237.080472,17.1434676 236.685812,16.0146735 236.663168,14.5235265 L232.125233,15.5918206 C232.259481,18.0833206 233.121262,20.1251147 234.711545,21.7152618 C236.301505,23.3057324 238.209133,24.1119676 240.433782,24.1346147 C242.657785,24.1566147 244.704837,23.2335853 246.573323,21.3648794 L249.360524,18.5776735 L245.623229,14.8399382 Z" id="Fill-18"></path>
        </g>
    </g>
</svg>