<?xml version="1.0" encoding="UTF-8"?>
<svg width="199px" height="60px" viewBox="0 0 199 60" version="1.1" xmlns="http://www.w3.org/2000/svg" xmlns:xlink="http://www.w3.org/1999/xlink">
    <!-- Generator: Sketch 49.3 (51167) - http://www.bohemiancoding.com/sketch -->
    <title>Jaywalk_Logo60</title>
    <desc>Created with Sketch.</desc>
    <defs></defs>
    <g id="Jaywalk_Logo60" stroke="none" stroke-width="1" fill="none" fill-rule="evenodd">
        <g id="Page-1" transform="translate(5.735294, 5.735294)" fill="#F80759">
            <path d="M8.67064958,10.8403787 C8.05124468,10.2209007 7.74142092,9.48398162 7.74142092,8.62816544 C7.74142092,7.77283456 8.05124468,7.0351875 8.67064958,6.41595221 C9.29005447,5.79647426 10.0268867,5.48685662 10.882602,5.48685662 C11.7375894,5.48685662 12.4751495,5.79647426 13.0943117,6.41595221 C13.7137166,7.0351875 14.0232978,7.77283456 14.0232978,8.62816544 C14.0232978,9.48398162 13.7137166,10.2209007 13.0943117,10.8403787 C12.4751495,11.4598566 11.7375894,11.7692316 10.882602,11.7692316 C10.0268867,11.7692316 9.29005447,11.4598566 8.67064958,10.8403787 M8.44938155,40.1742243 L8.44938155,15.530261 L13.4041355,15.530261 L13.4041355,40.351114 C13.4041355,42.8287831 12.6588116,44.7976213 11.1701048,46.2578713 C9.68042756,47.717636 7.88116915,48.447761 5.77305745,48.447761 C3.66470314,48.447761 1.74049622,47.6659522 -4.85236896e-05,46.1028199 L2.29997436,42.3864375 C3.30320165,43.3599375 4.31297963,43.8464449 5.33027878,43.8464449 C6.34806317,43.8464449 7.12201602,43.5215404 7.6531078,42.8731875 C8.18395697,42.223864 8.44938155,41.3243713 8.44938155,40.1742243" id="Fill-1"></path>
            <path d="M32.9128423,30.3075882 L32.9128423,28.3166691 L27.3386835,28.3166691 C23.7697661,28.3166691 21.9857926,29.4379412 21.9857926,31.6790294 C21.9857926,32.8296618 22.4283287,33.7075588 23.3131582,34.31175 C24.197745,34.9166691 25.428791,35.2187647 27.0067814,35.2187647 C28.5842866,35.2187647 29.9633298,34.7761765 31.1431833,33.8914853 C32.3225516,33.0065515 32.9128423,31.8117574 32.9128423,30.3075882 Z M37.8678389,39.0681176 L33.3551357,39.0681176 L33.3551357,35.9265662 C31.4088505,38.2571912 28.7985187,39.4221397 25.5251106,39.4221397 C23.0766052,39.4221397 21.049528,38.7291397 19.4421808,37.3424118 C17.8343484,35.9561691 17.0310387,34.1055 17.0310387,31.7899191 C17.0310387,29.4745809 17.8860261,27.7415956 19.5969714,26.5912059 C21.3071888,25.4408162 23.6227393,24.8655 26.5424097,24.8655 L32.9572415,24.8655 L32.9572415,23.9808088 C32.9572415,20.8547868 31.2166967,19.2909265 27.7370629,19.2909265 C25.5539821,19.2909265 23.2833161,20.0872941 20.9243369,21.6800294 L18.7123845,18.5828824 C21.5726134,16.3119485 24.8171499,15.1763603 28.444781,15.1763603 C31.2166967,15.1763603 33.4803268,15.877125 35.2354287,17.2776838 C36.9898027,18.6789706 37.8678389,20.8836618 37.8678389,23.8922426 L37.8678389,39.0681176 Z" id="Fill-4"></path>
            <path d="M45.6976942,48.4478338 C43.5444555,48.4478338 41.5981703,47.6657824 39.8581108,46.1028926 L42.1142197,42.0764074 C43.146076,43.0499074 44.2157807,43.5366574 45.3216356,43.5366574 C46.4277331,43.5366574 47.3271197,43.1384735 48.0202806,42.3421059 C48.7129563,41.5457382 49.0599007,40.6753632 49.0599007,39.7314662 C49.0599007,39.3182382 45.8891202,31.2521647 39.5485296,15.5303338 L44.8572639,15.5303338 L51.8910153,32.873775 L58.925252,15.5303338 L64.2337436,15.5303338 L52.8200014,43.4924956 C52.1413976,45.0255397 51.168255,46.2356206 49.900331,47.1203118 C48.6321643,48.0052456 47.2308002,48.4478338 45.6976942,48.4478338" id="Fill-6"></path>
            <polygon id="Fill-8" points="77.3721877 39.0679963 71.7097157 39.0679963 63.5696242 15.530261 68.7014896 15.530261 74.541073 33.3162904 80.3804138 15.530261 85.5122792 15.530261 91.3518627 33.3162904 97.1912035 15.530261 102.323069 15.530261 94.1829773 39.0679963 88.5205054 39.0679963 82.9465892 22.9632684"></polygon>
            <path d="M118.823938,30.3075882 L118.823938,28.3166691 L113.249779,28.3166691 C109.680862,28.3166691 107.896888,29.4379412 107.896888,31.6790294 C107.896888,32.8296618 108.339424,33.7075588 109.224254,34.31175 C110.10884,34.9166691 111.339886,35.2187647 112.918119,35.2187647 C114.495382,35.2187647 115.874668,34.7761765 117.054521,33.8914853 C118.233647,33.0065515 118.823938,31.8117574 118.823938,30.3075882 Z M123.778692,39.0681176 L119.266231,39.0681176 L119.266231,35.9265662 C117.319946,38.2571912 114.709857,39.4221397 111.436206,39.4221397 C108.987701,39.4221397 106.960381,38.7291397 105.353276,37.3424118 C103.745444,35.9561691 102.942134,34.1055 102.942134,31.7899191 C102.942134,29.4745809 103.797122,27.7415956 105.508067,26.5912059 C107.218284,25.4408162 109.533835,24.8655 112.453505,24.8655 L118.868337,24.8655 L118.868337,23.9808088 C118.868337,20.8547868 117.127792,19.2909265 113.648158,19.2909265 C111.465078,19.2909265 109.194654,20.0872941 106.83519,21.6800294 L104.62348,18.5828824 C107.483709,16.3119485 110.728245,15.1763603 114.355876,15.1763603 C117.127792,15.1763603 119.391422,15.877125 121.146524,17.2776838 C122.900898,18.6789706 123.778692,20.8836618 123.778692,23.8922426 L123.778692,39.0681176 Z" id="Fill-10"></path>
            <polygon id="Fill-12" points="128.910217 39.0681176 133.864971 39.0681176 133.864971 6.23894118 128.910217 6.23894118"></polygon>
            <polygon id="Fill-14" points="144.21619 39.0679963 139.261436 39.0679963 139.261436 6.23881985 144.21619 6.23881985 144.21619 25.529261 153.771961 15.530261 160.142393 15.530261 151.206028 24.8656213 160.805712 39.0679963 154.78926 39.0679963 147.799665 28.7593787 144.21619 32.3871949"></polygon>
            <path d="M175.041762,4.70999779 C174.603593,3.95148309 174.495143,3.15924044 174.716653,2.33254191 C174.937921,1.50657132 175.428253,0.874233088 176.186678,0.436497794 C176.945346,-0.00172279412 177.73701,-0.109943382 178.563854,0.111593382 C179.389485,0.332644853 180.021748,0.822791912 180.459675,1.58130662 C180.897601,2.34006397 181.005809,3.13279191 180.784541,3.9587625 C180.56303,4.78570368 180.073183,5.41707132 179.314515,5.85529191 C178.55609,6.29302721 177.763698,6.40124779 176.937825,6.17995368 C176.111224,5.95841691 175.479688,5.46875515 175.041762,4.70999779 M169.748555,23.6117184 L173.614195,9.18295368 L178.400087,10.465586 L174.488592,25.0654169 C173.847351,27.4586449 172.618004,29.1676081 170.802005,30.1925493 C168.985278,31.2170051 167.058645,31.4567404 165.022105,30.9107846 C162.985809,30.3650713 161.32921,29.1115566 160.052552,27.1514537 L163.236191,24.157189 C163.953128,25.3570787 164.802778,26.0884169 165.785383,26.351689 C166.76823,26.6152037 167.600169,26.5016449 168.280956,26.012711 C168.961501,25.5230493 169.450862,24.7230419 169.748555,23.6117184" id="Fill-15"></path>
            <path d="M172.053819,24.676939 L175.451933,25.5875934 C176.562883,25.8853213 177.363038,26.3744978 177.8524,27.0556081 C178.341276,27.7362331 178.455064,28.5680272 178.19158,29.5512331 C177.928339,30.5341963 177.196845,31.3837037 175.997096,32.1007257 L178.991251,35.2847404 C180.951122,34.007689 182.204489,32.3511375 182.750138,30.3143581 C183.295787,28.278064 183.056565,26.3507184 182.031988,24.5340199 C181.006925,22.7178066 179.298163,21.488314 176.905217,20.8469978 L173.336057,19.8904831 L172.053819,24.676939 Z" id="Fill-16"></path>
            <path d="M167.973122,17.2375985 L168.701705,14.5187382 C168.939714,13.6299221 169.331057,12.9895765 169.875736,12.5979441 C170.420414,12.2070397 171.085674,12.1160471 171.872,12.3266647 C172.658327,12.5372824 173.337659,13.1225471 173.911694,14.0824588 L176.45846,11.6870471 C175.437036,10.1188191 174.111854,9.11595882 172.482671,8.67919412 C170.853488,8.24291471 169.312133,8.43460588 167.858606,9.25426765 C166.406049,10.0741721 165.422474,11.4412456 164.909579,13.3557309 L164.144603,16.2114441 L167.973122,17.2375985 Z" id="Fill-17"></path>
            <path d="M184.217422,11.1299537 L182.227223,13.1203875 C181.576763,13.7709243 180.917811,14.1295566 180.250125,14.1965272 C179.583167,14.2630125 178.961336,14.008961 178.385845,13.4331596 C177.810354,12.8576007 177.514359,12.0110051 177.497376,10.8926449 L174.093924,11.6938654 C174.194611,13.5624904 174.840947,15.093836 176.033659,16.2864463 C177.226129,17.4792993 178.65685,18.0839757 180.325337,18.100961 C181.993339,18.117461 183.528628,17.425189 184.929992,16.0236596 L187.020393,13.9332551 L184.217422,11.1299537 Z" id="Fill-18"></path>
        </g>
    </g>
</svg>