<?xml version="1.0" encoding="UTF-8"?>
<svg width="75px" height="167px" viewBox="0 0 75 167" version="1.1" xmlns="http://www.w3.org/2000/svg" xmlns:xlink="http://www.w3.org/1999/xlink">
    <!-- Generator: Sketch 49.3 (51167) - http://www.bohemiancoding.com/sketch -->
    <title>JayCoin_Stack_Tier4_v2</title>
    <desc>Created with Sketch.</desc>
    <defs></defs>
    <g id="JayCoin_Stack_Tier4_v2" stroke="none" stroke-width="1" fill="none" fill-rule="evenodd">
        <g id="Group" transform="translate(1.500000, 1.500000)">
            <g id="Group-41-Copy" transform="translate(10.194056, 135.000000)">
                <path d="M52.0716094,25.2702881 C55.4207514,23.6433159 57.3866272,21.6498342 57.3866272,19.495212 L57.3905914,9.95874845 C57.3905914,4.46564236 44.5451788,0.0115468531 28.6954007,0.0115468531 C12.8456226,0.0115468531 0.000210031629,4.45358002 0.000210031629,9.95874845 L0.000210031629,19.5072743 C0.000210031629,25.0003804 12.8456226,29.4666414 28.6954007,29.4666414 C38.3464048,29.4666414 46.8677024,27.8154414 52.0322483,25.2823504" id="Shape" fill="#FFFFFF"></path>
                <path d="M55.2068642,13.8698326 L55.2068642,23.4062961" id="Shape" stroke="#FFA500" stroke-width="2.01923077"></path>
                <path d="M52.0320382,15.6616567 L52.0320382,25.1981203" id="Shape" stroke="#FFA500" stroke-width="2.01923077"></path>
                <path d="M47.882138,17.5060603 L47.882138,27.0425239" id="Shape" stroke="#FFA500" stroke-width="2.01923077"></path>
                <path d="M42.4324767,18.7751832 L42.4324767,28.3116468" id="Shape" stroke="#FFA500" stroke-width="2.01923077"></path>
                <path d="M28.6951907,19.9102801 L28.6951907,29.4547852" id="Shape" stroke="#FFA500" stroke-width="2.01923077"></path>
                <path d="M35.7652408,19.4556228 L35.7652408,29.0041487" id="Shape" stroke="#FFA500" stroke-width="2.01923077"></path>
                <path d="M2.18351721,13.8698326 L2.18351721,23.4062961" id="Shape" stroke="#FFA500" stroke-width="2.01923077"></path>
                <path d="M5.35022596,15.6616567 L5.35022596,25.1981203" id="Shape" stroke="#FFA500" stroke-width="2.01923077"></path>
                <path d="M9.50824341,17.5060603 L9.50824341,27.0425239" id="Shape" stroke="#FFA500" stroke-width="2.01923077"></path>
                <path d="M14.9579046,18.7751832 L14.9579046,28.3116468" id="Shape" stroke="#FFA500" stroke-width="2.01923077"></path>
                <path d="M21.6241259,19.4556228 L21.6241259,29.0041487" id="Shape" stroke="#FFA500" stroke-width="2.01923077"></path>
                <path d="M27.7194969,5.40393661 C27.7185466,5.08840177 27.8991305,4.81827627 28.2551149,4.59371746 C28.6031319,4.36918037 29.017791,4.25965 29.5061425,4.26516474 C29.9942227,4.27067383 30.4313651,4.38969617 30.8230349,4.6222207 C31.2230201,4.8547398 31.4551486,5.12886449 31.5133937,5.44439392 C31.5718184,5.76016762 31.4296826,6.03005973 31.0807557,6.25461855 C30.7236682,6.47915564 30.2688764,6.58857182 29.7233725,6.58305731 C29.1775235,6.57756429 28.7024765,6.45863983 28.3034588,6.22611531 C28.0374469,6.07109896 27.842793,5.79703939 27.7194969,5.40393661 Z M28.1999569,7.955015 L31.569,7.9869267 L32.5434478,13.5635291 C32.7065167,14.4776469 32.1508728,15.1992764 30.8350885,15.7283797 C29.461706,16.257434 27.7340244,16.5151922 25.6975399,16.5016108 C23.6630302,16.4880402 21.8783728,16.1871323 20.3953901,15.5992559 L22.833125,14.242897 C23.6570944,14.6085037 24.5377093,14.7945826 25.4575469,14.8011503 C26.3780704,14.8076963 27.0837115,14.6927294 27.5677233,14.45695 C28.0428407,14.2208396 28.2756962,13.8906706 28.2728452,13.4663074" id="Fill-1-Copy-23" fill="#FFA500"></path>
                <path d="M57.3903814,9.95936703 C57.3903814,15.4605147 44.5409102,19.9187341 28.6951907,19.9187341 C12.8494712,19.9187341 0,15.4606178 0,9.95936703 C0,4.46224016 12.8494712,0 28.6951907,0 C44.5409102,0 57.3903814,4.46213706 57.3903814,9.95936703" id="Shape" stroke="#FFA500" stroke-width="2.01923077"></path>
                <path d="M52.0716094,25.2702881 C55.4207514,23.6433159 57.3866272,21.6498342 57.3866272,19.495212 L57.3905914,9.95874845 C57.3905914,4.46564236 44.5451788,0.0115468531 28.6954007,0.0115468531 C12.8456226,0.0115468531 0.000210031628,4.45358002 0.000210031628,9.95874845 L0.000210031628,19.5072743 C0.000210031628,25.0003804 12.8456226,29.4666414 28.6954007,29.4666414 C38.3464048,29.4666414 46.8677024,27.8154414 52.0322483,25.2823504" id="Shape" stroke="#FFA500" stroke-width="2.01923077"></path>
            </g>
            <g id="Group-41-Copy-2" transform="translate(0.032343, 121.000000)">
                <path d="M52.0716094,25.2702881 C55.4207514,23.6433159 57.3866272,21.6498342 57.3866272,19.495212 L57.3905914,9.95874845 C57.3905914,4.46564236 44.5451788,0.0115468531 28.6954007,0.0115468531 C12.8456226,0.0115468531 0.000210031629,4.45358002 0.000210031629,9.95874845 L0.000210031629,19.5072743 C0.000210031629,25.0003804 12.8456226,29.4666414 28.6954007,29.4666414 C38.3464048,29.4666414 46.8677024,27.8154414 52.0322483,25.2823504" id="Shape" fill="#FFFFFF"></path>
                <path d="M55.2068642,13.8698326 L55.2068642,23.4062961" id="Shape" stroke="#FFA500" stroke-width="2.01923077"></path>
                <path d="M52.0320382,15.6616567 L52.0320382,25.1981203" id="Shape" stroke="#FFA500" stroke-width="2.01923077"></path>
                <path d="M47.882138,17.5060603 L47.882138,27.0425239" id="Shape" stroke="#FFA500" stroke-width="2.01923077"></path>
                <path d="M42.4324767,18.7751832 L42.4324767,28.3116468" id="Shape" stroke="#FFA500" stroke-width="2.01923077"></path>
                <path d="M28.6951907,19.9102801 L28.6951907,29.4547852" id="Shape" stroke="#FFA500" stroke-width="2.01923077"></path>
                <path d="M35.7652408,19.4556228 L35.7652408,29.0041487" id="Shape" stroke="#FFA500" stroke-width="2.01923077"></path>
                <path d="M2.18351721,13.8698326 L2.18351721,23.4062961" id="Shape" stroke="#FFA500" stroke-width="2.01923077"></path>
                <path d="M5.35022596,15.6616567 L5.35022596,25.1981203" id="Shape" stroke="#FFA500" stroke-width="2.01923077"></path>
                <path d="M9.50824341,17.5060603 L9.50824341,27.0425239" id="Shape" stroke="#FFA500" stroke-width="2.01923077"></path>
                <path d="M14.9579046,18.7751832 L14.9579046,28.3116468" id="Shape" stroke="#FFA500" stroke-width="2.01923077"></path>
                <path d="M21.6241259,19.4556228 L21.6241259,29.0041487" id="Shape" stroke="#FFA500" stroke-width="2.01923077"></path>
                <path d="M27.7194969,5.40393661 C27.7185466,5.08840177 27.8991305,4.81827627 28.2551149,4.59371746 C28.6031319,4.36918037 29.017791,4.25965 29.5061425,4.26516474 C29.9942227,4.27067383 30.4313651,4.38969617 30.8230349,4.6222207 C31.2230201,4.8547398 31.4551486,5.12886449 31.5133937,5.44439392 C31.5718184,5.76016762 31.4296826,6.03005973 31.0807557,6.25461855 C30.7236682,6.47915564 30.2688764,6.58857182 29.7233725,6.58305731 C29.1775235,6.57756429 28.7024765,6.45863983 28.3034588,6.22611531 C28.0374469,6.07109896 27.842793,5.79703939 27.7194969,5.40393661 Z M28.1999569,7.955015 L31.569,7.9869267 L32.5434478,13.5635291 C32.7065167,14.4776469 32.1508728,15.1992764 30.8350885,15.7283797 C29.461706,16.257434 27.7340244,16.5151922 25.6975399,16.5016108 C23.6630302,16.4880402 21.8783728,16.1871323 20.3953901,15.5992559 L22.833125,14.242897 C23.6570944,14.6085037 24.5377093,14.7945826 25.4575469,14.8011503 C26.3780704,14.8076963 27.0837115,14.6927294 27.5677233,14.45695 C28.0428407,14.2208396 28.2756962,13.8906706 28.2728452,13.4663074" id="Fill-1-Copy-23" fill="#3A3A3A"></path>
                <path d="M57.3903814,9.95936703 C57.3903814,15.4605147 44.5409102,19.9187341 28.6951907,19.9187341 C12.8494712,19.9187341 0,15.4606178 0,9.95936703 C0,4.46224016 12.8494712,0 28.6951907,0 C44.5409102,0 57.3903814,4.46213706 57.3903814,9.95936703" id="Shape" stroke="#FFA500" stroke-width="2.01923077"></path>
                <path d="M52.0716094,25.2702881 C55.4207514,23.6433159 57.3866272,21.6498342 57.3866272,19.495212 L57.3905914,9.95874845 C57.3905914,4.46564236 44.5451788,0.0115468531 28.6954007,0.0115468531 C12.8456226,0.0115468531 0.000210031628,4.45358002 0.000210031628,9.95874845 L0.000210031628,19.5072743 C0.000210031628,25.0003804 12.8456226,29.4666414 28.6954007,29.4666414 C38.3464048,29.4666414 46.8677024,27.8154414 52.0322483,25.2823504" id="Shape" stroke="#FFA500" stroke-width="2.01923077"></path>
            </g>
            <g id="Group-41-Copy-3" transform="translate(6.129371, 109.000000)">
                <path d="M52.0716094,25.2702881 C55.4207514,23.6433159 57.3866272,21.6498342 57.3866272,19.495212 L57.3905914,9.95874845 C57.3905914,4.46564236 44.5451788,0.0115468531 28.6954007,0.0115468531 C12.8456226,0.0115468531 0.000210031629,4.45358002 0.000210031629,9.95874845 L0.000210031629,19.5072743 C0.000210031629,25.0003804 12.8456226,29.4666414 28.6954007,29.4666414 C38.3464048,29.4666414 46.8677024,27.8154414 52.0322483,25.2823504" id="Shape" fill="#FFFFFF"></path>
                <path d="M55.2068642,13.8698326 L55.2068642,23.4062961" id="Shape" stroke="#FFA500" stroke-width="2.01923077"></path>
                <path d="M52.0320382,15.6616567 L52.0320382,25.1981203" id="Shape" stroke="#FFA500" stroke-width="2.01923077"></path>
                <path d="M47.882138,17.5060603 L47.882138,27.0425239" id="Shape" stroke="#FFA500" stroke-width="2.01923077"></path>
                <path d="M42.4324767,18.7751832 L42.4324767,28.3116468" id="Shape" stroke="#FFA500" stroke-width="2.01923077"></path>
                <path d="M28.6951907,19.9102801 L28.6951907,29.4547852" id="Shape" stroke="#FFA500" stroke-width="2.01923077"></path>
                <path d="M35.7652408,19.4556228 L35.7652408,29.0041487" id="Shape" stroke="#FFA500" stroke-width="2.01923077"></path>
                <path d="M2.18351721,13.8698326 L2.18351721,23.4062961" id="Shape" stroke="#FFA500" stroke-width="2.01923077"></path>
                <path d="M5.35022596,15.6616567 L5.35022596,25.1981203" id="Shape" stroke="#FFA500" stroke-width="2.01923077"></path>
                <path d="M9.50824341,17.5060603 L9.50824341,27.0425239" id="Shape" stroke="#FFA500" stroke-width="2.01923077"></path>
                <path d="M14.9579046,18.7751832 L14.9579046,28.3116468" id="Shape" stroke="#FFA500" stroke-width="2.01923077"></path>
                <path d="M21.6241259,19.4556228 L21.6241259,29.0041487" id="Shape" stroke="#FFA500" stroke-width="2.01923077"></path>
                <path d="M27.7194969,5.40393661 C27.7185466,5.08840177 27.8991305,4.81827627 28.2551149,4.59371746 C28.6031319,4.36918037 29.017791,4.25965 29.5061425,4.26516474 C29.9942227,4.27067383 30.4313651,4.38969617 30.8230349,4.6222207 C31.2230201,4.8547398 31.4551486,5.12886449 31.5133937,5.44439392 C31.5718184,5.76016762 31.4296826,6.03005973 31.0807557,6.25461855 C30.7236682,6.47915564 30.2688764,6.58857182 29.7233725,6.58305731 C29.1775235,6.57756429 28.7024765,6.45863983 28.3034588,6.22611531 C28.0374469,6.07109896 27.842793,5.79703939 27.7194969,5.40393661 Z M28.1999569,7.955015 L31.569,7.9869267 L32.5434478,13.5635291 C32.7065167,14.4776469 32.1508728,15.1992764 30.8350885,15.7283797 C29.461706,16.257434 27.7340244,16.5151922 25.6975399,16.5016108 C23.6630302,16.4880402 21.8783728,16.1871323 20.3953901,15.5992559 L22.833125,14.242897 C23.6570944,14.6085037 24.5377093,14.7945826 25.4575469,14.8011503 C26.3780704,14.8076963 27.0837115,14.6927294 27.5677233,14.45695 C28.0428407,14.2208396 28.2756962,13.8906706 28.2728452,13.4663074" id="Fill-1-Copy-23" fill="#3A3A3A"></path>
                <path d="M57.3903814,9.95936703 C57.3903814,15.4605147 44.5409102,19.9187341 28.6951907,19.9187341 C12.8494712,19.9187341 0,15.4606178 0,9.95936703 C0,4.46224016 12.8494712,0 28.6951907,0 C44.5409102,0 57.3903814,4.46213706 57.3903814,9.95936703" id="Shape" stroke="#FFA500" stroke-width="2.01923077"></path>
                <path d="M52.0716094,25.2702881 C55.4207514,23.6433159 57.3866272,21.6498342 57.3866272,19.495212 L57.3905914,9.95874845 C57.3905914,4.46564236 44.5451788,0.0115468531 28.6954007,0.0115468531 C12.8456226,0.0115468531 0.000210031628,4.45358002 0.000210031628,9.95874845 L0.000210031628,19.5072743 C0.000210031628,25.0003804 12.8456226,29.4666414 28.6954007,29.4666414 C38.3464048,29.4666414 46.8677024,27.8154414 52.0322483,25.2823504" id="Shape" stroke="#FFA500" stroke-width="2.01923077"></path>
            </g>
            <g id="Group-41-Copy-3" transform="translate(12.226399, 97.000000)">
                <path d="M52.0716094,25.2702881 C55.4207514,23.6433159 57.3866272,21.6498342 57.3866272,19.495212 L57.3905914,9.95874845 C57.3905914,4.46564236 44.5451788,0.0115468531 28.6954007,0.0115468531 C12.8456226,0.0115468531 0.000210031629,4.45358002 0.000210031629,9.95874845 L0.000210031629,19.5072743 C0.000210031629,25.0003804 12.8456226,29.4666414 28.6954007,29.4666414 C38.3464048,29.4666414 46.8677024,27.8154414 52.0322483,25.2823504" id="Shape" fill="#FFFFFF"></path>
                <path d="M55.2068642,13.8698326 L55.2068642,23.4062961" id="Shape" stroke="#FFA500" stroke-width="2.01923077"></path>
                <path d="M52.0320382,15.6616567 L52.0320382,25.1981203" id="Shape" stroke="#FFA500" stroke-width="2.01923077"></path>
                <path d="M47.882138,17.5060603 L47.882138,27.0425239" id="Shape" stroke="#FFA500" stroke-width="2.01923077"></path>
                <path d="M42.4324767,18.7751832 L42.4324767,28.3116468" id="Shape" stroke="#FFA500" stroke-width="2.01923077"></path>
                <path d="M28.6951907,19.9102801 L28.6951907,29.4547852" id="Shape" stroke="#FFA500" stroke-width="2.01923077"></path>
                <path d="M35.7652408,19.4556228 L35.7652408,29.0041487" id="Shape" stroke="#FFA500" stroke-width="2.01923077"></path>
                <path d="M2.18351721,13.8698326 L2.18351721,23.4062961" id="Shape" stroke="#FFA500" stroke-width="2.01923077"></path>
                <path d="M5.35022596,15.6616567 L5.35022596,25.1981203" id="Shape" stroke="#FFA500" stroke-width="2.01923077"></path>
                <path d="M9.50824341,17.5060603 L9.50824341,27.0425239" id="Shape" stroke="#FFA500" stroke-width="2.01923077"></path>
                <path d="M14.9579046,18.7751832 L14.9579046,28.3116468" id="Shape" stroke="#FFA500" stroke-width="2.01923077"></path>
                <path d="M21.6241259,19.4556228 L21.6241259,29.0041487" id="Shape" stroke="#FFA500" stroke-width="2.01923077"></path>
                <path d="M27.7194969,5.40393661 C27.7185466,5.08840177 27.8991305,4.81827627 28.2551149,4.59371746 C28.6031319,4.36918037 29.017791,4.25965 29.5061425,4.26516474 C29.9942227,4.27067383 30.4313651,4.38969617 30.8230349,4.6222207 C31.2230201,4.8547398 31.4551486,5.12886449 31.5133937,5.44439392 C31.5718184,5.76016762 31.4296826,6.03005973 31.0807557,6.25461855 C30.7236682,6.47915564 30.2688764,6.58857182 29.7233725,6.58305731 C29.1775235,6.57756429 28.7024765,6.45863983 28.3034588,6.22611531 C28.0374469,6.07109896 27.842793,5.79703939 27.7194969,5.40393661 Z M28.1999569,7.955015 L31.569,7.9869267 L32.5434478,13.5635291 C32.7065167,14.4776469 32.1508728,15.1992764 30.8350885,15.7283797 C29.461706,16.257434 27.7340244,16.5151922 25.6975399,16.5016108 C23.6630302,16.4880402 21.8783728,16.1871323 20.3953901,15.5992559 L22.833125,14.242897 C23.6570944,14.6085037 24.5377093,14.7945826 25.4575469,14.8011503 C26.3780704,14.8076963 27.0837115,14.6927294 27.5677233,14.45695 C28.0428407,14.2208396 28.2756962,13.8906706 28.2728452,13.4663074" id="Fill-1-Copy-23" fill="#FFA500"></path>
                <path d="M57.3903814,9.95936703 C57.3903814,15.4605147 44.5409102,19.9187341 28.6951907,19.9187341 C12.8494712,19.9187341 0,15.4606178 0,9.95936703 C0,4.46224016 12.8494712,0 28.6951907,0 C44.5409102,0 57.3903814,4.46213706 57.3903814,9.95936703" id="Shape" stroke="#FFA500" stroke-width="2.01923077"></path>
                <path d="M52.0716094,25.2702881 C55.4207514,23.6433159 57.3866272,21.6498342 57.3866272,19.495212 L57.3905914,9.95874845 C57.3905914,4.46564236 44.5451788,0.0115468531 28.6954007,0.0115468531 C12.8456226,0.0115468531 0.000210031628,4.45358002 0.000210031628,9.95874845 L0.000210031628,19.5072743 C0.000210031628,25.0003804 12.8456226,29.4666414 28.6954007,29.4666414 C38.3464048,29.4666414 46.8677024,27.8154414 52.0322483,25.2823504" id="Shape" stroke="#FFA500" stroke-width="2.01923077"></path>
            </g>
            <g id="Group-41-Copy-4" transform="translate(6.000000, 84.000000)">
                <path d="M52.0716094,25.2702881 C55.4207514,23.6433159 57.3866272,21.6498342 57.3866272,19.495212 L57.3905914,9.95874845 C57.3905914,4.46564236 44.5451788,0.0115468531 28.6954007,0.0115468531 C12.8456226,0.0115468531 0.000210031629,4.45358002 0.000210031629,9.95874845 L0.000210031629,19.5072743 C0.000210031629,25.0003804 12.8456226,29.4666414 28.6954007,29.4666414 C38.3464048,29.4666414 46.8677024,27.8154414 52.0322483,25.2823504" id="Shape" fill="#FFFFFF"></path>
                <path d="M55.2068642,13.8698326 L55.2068642,23.4062961" id="Shape" stroke="#FFA500" stroke-width="2.01923077"></path>
                <path d="M52.0320382,15.6616567 L52.0320382,25.1981203" id="Shape" stroke="#FFA500" stroke-width="2.01923077"></path>
                <path d="M47.882138,17.5060603 L47.882138,27.0425239" id="Shape" stroke="#FFA500" stroke-width="2.01923077"></path>
                <path d="M42.4324767,18.7751832 L42.4324767,28.3116468" id="Shape" stroke="#FFA500" stroke-width="2.01923077"></path>
                <path d="M28.6951907,19.9102801 L28.6951907,29.4547852" id="Shape" stroke="#FFA500" stroke-width="2.01923077"></path>
                <path d="M35.7652408,19.4556228 L35.7652408,29.0041487" id="Shape" stroke="#FFA500" stroke-width="2.01923077"></path>
                <path d="M2.18351721,13.8698326 L2.18351721,23.4062961" id="Shape" stroke="#FFA500" stroke-width="2.01923077"></path>
                <path d="M5.35022596,15.6616567 L5.35022596,25.1981203" id="Shape" stroke="#FFA500" stroke-width="2.01923077"></path>
                <path d="M9.50824341,17.5060603 L9.50824341,27.0425239" id="Shape" stroke="#FFA500" stroke-width="2.01923077"></path>
                <path d="M14.9579046,18.7751832 L14.9579046,28.3116468" id="Shape" stroke="#FFA500" stroke-width="2.01923077"></path>
                <path d="M21.6241259,19.4556228 L21.6241259,29.0041487" id="Shape" stroke="#FFA500" stroke-width="2.01923077"></path>
                <path d="M27.7194969,5.40393661 C27.7185466,5.08840177 27.8991305,4.81827627 28.2551149,4.59371746 C28.6031319,4.36918037 29.017791,4.25965 29.5061425,4.26516474 C29.9942227,4.27067383 30.4313651,4.38969617 30.8230349,4.6222207 C31.2230201,4.8547398 31.4551486,5.12886449 31.5133937,5.44439392 C31.5718184,5.76016762 31.4296826,6.03005973 31.0807557,6.25461855 C30.7236682,6.47915564 30.2688764,6.58857182 29.7233725,6.58305731 C29.1775235,6.57756429 28.7024765,6.45863983 28.3034588,6.22611531 C28.0374469,6.07109896 27.842793,5.79703939 27.7194969,5.40393661 Z M28.1999569,7.955015 L31.569,7.9869267 L32.5434478,13.5635291 C32.7065167,14.4776469 32.1508728,15.1992764 30.8350885,15.7283797 C29.461706,16.257434 27.7340244,16.5151922 25.6975399,16.5016108 C23.6630302,16.4880402 21.8783728,16.1871323 20.3953901,15.5992559 L22.833125,14.242897 C23.6570944,14.6085037 24.5377093,14.7945826 25.4575469,14.8011503 C26.3780704,14.8076963 27.0837115,14.6927294 27.5677233,14.45695 C28.0428407,14.2208396 28.2756962,13.8906706 28.2728452,13.4663074" id="Fill-1-Copy-23" fill="#FFA500"></path>
                <path d="M57.3903814,9.95936703 C57.3903814,15.4605147 44.5409102,19.9187341 28.6951907,19.9187341 C12.8494712,19.9187341 0,15.4606178 0,9.95936703 C0,4.46224016 12.8494712,0 28.6951907,0 C44.5409102,0 57.3903814,4.46213706 57.3903814,9.95936703" id="Shape" stroke="#FFA500" stroke-width="2.01923077"></path>
                <path d="M52.0716094,25.2702881 C55.4207514,23.6433159 57.3866272,21.6498342 57.3866272,19.495212 L57.3905914,9.95874845 C57.3905914,4.46564236 44.5451788,0.0115468531 28.6954007,0.0115468531 C12.8456226,0.0115468531 0.000210031628,4.45358002 0.000210031628,9.95874845 L0.000210031628,19.5072743 C0.000210031628,25.0003804 12.8456226,29.4666414 28.6954007,29.4666414 C38.3464048,29.4666414 46.8677024,27.8154414 52.0322483,25.2823504" id="Shape" stroke="#FFA500" stroke-width="2.01923077"></path>
            </g>
            <g id="Group-41-Copy-5" transform="translate(14.750000, 72.500000)">
                <path d="M52.0716094,25.2702881 C55.4207514,23.6433159 57.3866272,21.6498342 57.3866272,19.495212 L57.3905914,9.95874845 C57.3905914,4.46564236 44.5451788,0.0115468531 28.6954007,0.0115468531 C12.8456226,0.0115468531 0.000210031629,4.45358002 0.000210031629,9.95874845 L0.000210031629,19.5072743 C0.000210031629,25.0003804 12.8456226,29.4666414 28.6954007,29.4666414 C38.3464048,29.4666414 46.8677024,27.8154414 52.0322483,25.2823504" id="Shape" fill="#FFFFFF"></path>
                <path d="M55.2068642,13.8698326 L55.2068642,23.4062961" id="Shape" stroke="#FFA500" stroke-width="2.01923077"></path>
                <path d="M52.0320382,15.6616567 L52.0320382,25.1981203" id="Shape" stroke="#FFA500" stroke-width="2.01923077"></path>
                <path d="M47.882138,17.5060603 L47.882138,27.0425239" id="Shape" stroke="#FFA500" stroke-width="2.01923077"></path>
                <path d="M42.4324767,18.7751832 L42.4324767,28.3116468" id="Shape" stroke="#FFA500" stroke-width="2.01923077"></path>
                <path d="M28.6951907,19.9102801 L28.6951907,29.4547852" id="Shape" stroke="#FFA500" stroke-width="2.01923077"></path>
                <path d="M35.7652408,19.4556228 L35.7652408,29.0041487" id="Shape" stroke="#FFA500" stroke-width="2.01923077"></path>
                <path d="M2.18351721,13.8698326 L2.18351721,23.4062961" id="Shape" stroke="#FFA500" stroke-width="2.01923077"></path>
                <path d="M5.35022596,15.6616567 L5.35022596,25.1981203" id="Shape" stroke="#FFA500" stroke-width="2.01923077"></path>
                <path d="M9.50824341,17.5060603 L9.50824341,27.0425239" id="Shape" stroke="#FFA500" stroke-width="2.01923077"></path>
                <path d="M14.9579046,18.7751832 L14.9579046,28.3116468" id="Shape" stroke="#FFA500" stroke-width="2.01923077"></path>
                <path d="M21.6241259,19.4556228 L21.6241259,29.0041487" id="Shape" stroke="#FFA500" stroke-width="2.01923077"></path>
                <path d="M27.7194969,5.40393661 C27.7185466,5.08840177 27.8991305,4.81827627 28.2551149,4.59371746 C28.6031319,4.36918037 29.017791,4.25965 29.5061425,4.26516474 C29.9942227,4.27067383 30.4313651,4.38969617 30.8230349,4.6222207 C31.2230201,4.8547398 31.4551486,5.12886449 31.5133937,5.44439392 C31.5718184,5.76016762 31.4296826,6.03005973 31.0807557,6.25461855 C30.7236682,6.47915564 30.2688764,6.58857182 29.7233725,6.58305731 C29.1775235,6.57756429 28.7024765,6.45863983 28.3034588,6.22611531 C28.0374469,6.07109896 27.842793,5.79703939 27.7194969,5.40393661 Z M28.1999569,7.955015 L31.569,7.9869267 L32.5434478,13.5635291 C32.7065167,14.4776469 32.1508728,15.1992764 30.8350885,15.7283797 C29.461706,16.257434 27.7340244,16.5151922 25.6975399,16.5016108 C23.6630302,16.4880402 21.8783728,16.1871323 20.3953901,15.5992559 L22.833125,14.242897 C23.6570944,14.6085037 24.5377093,14.7945826 25.4575469,14.8011503 C26.3780704,14.8076963 27.0837115,14.6927294 27.5677233,14.45695 C28.0428407,14.2208396 28.2756962,13.8906706 28.2728452,13.4663074" id="Fill-1-Copy-23" fill="#FFA500"></path>
                <path d="M57.3903814,9.95936703 C57.3903814,15.4605147 44.5409102,19.9187341 28.6951907,19.9187341 C12.8494712,19.9187341 0,15.4606178 0,9.95936703 C0,4.46224016 12.8494712,0 28.6951907,0 C44.5409102,0 57.3903814,4.46213706 57.3903814,9.95936703" id="Shape" stroke="#FFA500" stroke-width="2.01923077"></path>
                <path d="M52.0716094,25.2702881 C55.4207514,23.6433159 57.3866272,21.6498342 57.3866272,19.495212 L57.3905914,9.95874845 C57.3905914,4.46564236 44.5451788,0.0115468531 28.6954007,0.0115468531 C12.8456226,0.0115468531 0.000210031628,4.45358002 0.000210031628,9.95874845 L0.000210031628,19.5072743 C0.000210031628,25.0003804 12.8456226,29.4666414 28.6954007,29.4666414 C38.3464048,29.4666414 46.8677024,27.8154414 52.0322483,25.2823504" id="Shape" stroke="#FFA500" stroke-width="2.01923077"></path>
            </g>
            <g id="Group-41-Copy-6" transform="translate(8.500000, 61.000000)">
                <path d="M52.0716094,25.2702881 C55.4207514,23.6433159 57.3866272,21.6498342 57.3866272,19.495212 L57.3905914,9.95874845 C57.3905914,4.46564236 44.5451788,0.0115468531 28.6954007,0.0115468531 C12.8456226,0.0115468531 0.000210031629,4.45358002 0.000210031629,9.95874845 L0.000210031629,19.5072743 C0.000210031629,25.0003804 12.8456226,29.4666414 28.6954007,29.4666414 C38.3464048,29.4666414 46.8677024,27.8154414 52.0322483,25.2823504" id="Shape" fill="#FFFFFF"></path>
                <path d="M55.2068642,13.8698326 L55.2068642,23.4062961" id="Shape" stroke="#FFA500" stroke-width="2.01923077"></path>
                <path d="M52.0320382,15.6616567 L52.0320382,25.1981203" id="Shape" stroke="#FFA500" stroke-width="2.01923077"></path>
                <path d="M47.882138,17.5060603 L47.882138,27.0425239" id="Shape" stroke="#FFA500" stroke-width="2.01923077"></path>
                <path d="M42.4324767,18.7751832 L42.4324767,28.3116468" id="Shape" stroke="#FFA500" stroke-width="2.01923077"></path>
                <path d="M28.6951907,19.9102801 L28.6951907,29.4547852" id="Shape" stroke="#FFA500" stroke-width="2.01923077"></path>
                <path d="M35.7652408,19.4556228 L35.7652408,29.0041487" id="Shape" stroke="#FFA500" stroke-width="2.01923077"></path>
                <path d="M2.18351721,13.8698326 L2.18351721,23.4062961" id="Shape" stroke="#FFA500" stroke-width="2.01923077"></path>
                <path d="M5.35022596,15.6616567 L5.35022596,25.1981203" id="Shape" stroke="#FFA500" stroke-width="2.01923077"></path>
                <path d="M9.50824341,17.5060603 L9.50824341,27.0425239" id="Shape" stroke="#FFA500" stroke-width="2.01923077"></path>
                <path d="M14.9579046,18.7751832 L14.9579046,28.3116468" id="Shape" stroke="#FFA500" stroke-width="2.01923077"></path>
                <path d="M21.6241259,19.4556228 L21.6241259,29.0041487" id="Shape" stroke="#FFA500" stroke-width="2.01923077"></path>
                <path d="M27.7194969,5.40393661 C27.7185466,5.08840177 27.8991305,4.81827627 28.2551149,4.59371746 C28.6031319,4.36918037 29.017791,4.25965 29.5061425,4.26516474 C29.9942227,4.27067383 30.4313651,4.38969617 30.8230349,4.6222207 C31.2230201,4.8547398 31.4551486,5.12886449 31.5133937,5.44439392 C31.5718184,5.76016762 31.4296826,6.03005973 31.0807557,6.25461855 C30.7236682,6.47915564 30.2688764,6.58857182 29.7233725,6.58305731 C29.1775235,6.57756429 28.7024765,6.45863983 28.3034588,6.22611531 C28.0374469,6.07109896 27.842793,5.79703939 27.7194969,5.40393661 Z M28.1999569,7.955015 L31.569,7.9869267 L32.5434478,13.5635291 C32.7065167,14.4776469 32.1508728,15.1992764 30.8350885,15.7283797 C29.461706,16.257434 27.7340244,16.5151922 25.6975399,16.5016108 C23.6630302,16.4880402 21.8783728,16.1871323 20.3953901,15.5992559 L22.833125,14.242897 C23.6570944,14.6085037 24.5377093,14.7945826 25.4575469,14.8011503 C26.3780704,14.8076963 27.0837115,14.6927294 27.5677233,14.45695 C28.0428407,14.2208396 28.2756962,13.8906706 28.2728452,13.4663074" id="Fill-1-Copy-23" fill="#FFA500"></path>
                <path d="M57.3903814,9.95936703 C57.3903814,15.4605147 44.5409102,19.9187341 28.6951907,19.9187341 C12.8494712,19.9187341 0,15.4606178 0,9.95936703 C0,4.46224016 12.8494712,0 28.6951907,0 C44.5409102,0 57.3903814,4.46213706 57.3903814,9.95936703" id="Shape" stroke="#FFA500" stroke-width="2.01923077"></path>
                <path d="M52.0716094,25.2702881 C55.4207514,23.6433159 57.3866272,21.6498342 57.3866272,19.495212 L57.3905914,9.95874845 C57.3905914,4.46564236 44.5451788,0.0115468531 28.6954007,0.0115468531 C12.8456226,0.0115468531 0.000210031628,4.45358002 0.000210031628,9.95874845 L0.000210031628,19.5072743 C0.000210031628,25.0003804 12.8456226,29.4666414 28.6954007,29.4666414 C38.3464048,29.4666414 46.8677024,27.8154414 52.0322483,25.2823504" id="Shape" stroke="#FFA500" stroke-width="2.01923077"></path>
            </g>
            <g id="Group-41-Copy-7" transform="translate(5.750000, 49.250000)">
                <path d="M52.0716094,25.2702881 C55.4207514,23.6433159 57.3866272,21.6498342 57.3866272,19.495212 L57.3905914,9.95874845 C57.3905914,4.46564236 44.5451788,0.0115468531 28.6954007,0.0115468531 C12.8456226,0.0115468531 0.000210031629,4.45358002 0.000210031629,9.95874845 L0.000210031629,19.5072743 C0.000210031629,25.0003804 12.8456226,29.4666414 28.6954007,29.4666414 C38.3464048,29.4666414 46.8677024,27.8154414 52.0322483,25.2823504" id="Shape" fill="#FFFFFF"></path>
                <path d="M55.2068642,13.8698326 L55.2068642,23.4062961" id="Shape" stroke="#FFA500" stroke-width="2.01923077"></path>
                <path d="M52.0320382,15.6616567 L52.0320382,25.1981203" id="Shape" stroke="#FFA500" stroke-width="2.01923077"></path>
                <path d="M47.882138,17.5060603 L47.882138,27.0425239" id="Shape" stroke="#FFA500" stroke-width="2.01923077"></path>
                <path d="M42.4324767,18.7751832 L42.4324767,28.3116468" id="Shape" stroke="#FFA500" stroke-width="2.01923077"></path>
                <path d="M28.6951907,19.9102801 L28.6951907,29.4547852" id="Shape" stroke="#FFA500" stroke-width="2.01923077"></path>
                <path d="M35.7652408,19.4556228 L35.7652408,29.0041487" id="Shape" stroke="#FFA500" stroke-width="2.01923077"></path>
                <path d="M2.18351721,13.8698326 L2.18351721,23.4062961" id="Shape" stroke="#FFA500" stroke-width="2.01923077"></path>
                <path d="M5.35022596,15.6616567 L5.35022596,25.1981203" id="Shape" stroke="#FFA500" stroke-width="2.01923077"></path>
                <path d="M9.50824341,17.5060603 L9.50824341,27.0425239" id="Shape" stroke="#FFA500" stroke-width="2.01923077"></path>
                <path d="M14.9579046,18.7751832 L14.9579046,28.3116468" id="Shape" stroke="#FFA500" stroke-width="2.01923077"></path>
                <path d="M21.6241259,19.4556228 L21.6241259,29.0041487" id="Shape" stroke="#FFA500" stroke-width="2.01923077"></path>
                <path d="M27.7194969,5.40393661 C27.7185466,5.08840177 27.8991305,4.81827627 28.2551149,4.59371746 C28.6031319,4.36918037 29.017791,4.25965 29.5061425,4.26516474 C29.9942227,4.27067383 30.4313651,4.38969617 30.8230349,4.6222207 C31.2230201,4.8547398 31.4551486,5.12886449 31.5133937,5.44439392 C31.5718184,5.76016762 31.4296826,6.03005973 31.0807557,6.25461855 C30.7236682,6.47915564 30.2688764,6.58857182 29.7233725,6.58305731 C29.1775235,6.57756429 28.7024765,6.45863983 28.3034588,6.22611531 C28.0374469,6.07109896 27.842793,5.79703939 27.7194969,5.40393661 Z M28.1999569,7.955015 L31.569,7.9869267 L32.5434478,13.5635291 C32.7065167,14.4776469 32.1508728,15.1992764 30.8350885,15.7283797 C29.461706,16.257434 27.7340244,16.5151922 25.6975399,16.5016108 C23.6630302,16.4880402 21.8783728,16.1871323 20.3953901,15.5992559 L22.833125,14.242897 C23.6570944,14.6085037 24.5377093,14.7945826 25.4575469,14.8011503 C26.3780704,14.8076963 27.0837115,14.6927294 27.5677233,14.45695 C28.0428407,14.2208396 28.2756962,13.8906706 28.2728452,13.4663074" id="Fill-1-Copy-23" fill="#FFA500"></path>
                <path d="M57.3903814,9.95936703 C57.3903814,15.4605147 44.5409102,19.9187341 28.6951907,19.9187341 C12.8494712,19.9187341 0,15.4606178 0,9.95936703 C0,4.46224016 12.8494712,0 28.6951907,0 C44.5409102,0 57.3903814,4.46213706 57.3903814,9.95936703" id="Shape" stroke="#FFA500" stroke-width="2.01923077"></path>
                <path d="M52.0716094,25.2702881 C55.4207514,23.6433159 57.3866272,21.6498342 57.3866272,19.495212 L57.3905914,9.95874845 C57.3905914,4.46564236 44.5451788,0.0115468531 28.6954007,0.0115468531 C12.8456226,0.0115468531 0.000210031628,4.45358002 0.000210031628,9.95874845 L0.000210031628,19.5072743 C0.000210031628,25.0003804 12.8456226,29.4666414 28.6954007,29.4666414 C38.3464048,29.4666414 46.8677024,27.8154414 52.0322483,25.2823504" id="Shape" stroke="#FFA500" stroke-width="2.01923077"></path>
            </g>
            <g id="Group-41-Copy-8" transform="translate(14.500000, 36.500000)">
                <path d="M52.0716094,25.2702881 C55.4207514,23.6433159 57.3866272,21.6498342 57.3866272,19.495212 L57.3905914,9.95874845 C57.3905914,4.46564236 44.5451788,0.0115468531 28.6954007,0.0115468531 C12.8456226,0.0115468531 0.000210031629,4.45358002 0.000210031629,9.95874845 L0.000210031629,19.5072743 C0.000210031629,25.0003804 12.8456226,29.4666414 28.6954007,29.4666414 C38.3464048,29.4666414 46.8677024,27.8154414 52.0322483,25.2823504" id="Shape" fill="#FFFFFF"></path>
                <path d="M55.2068642,13.8698326 L55.2068642,23.4062961" id="Shape" stroke="#FFA500" stroke-width="2.01923077"></path>
                <path d="M52.0320382,15.6616567 L52.0320382,25.1981203" id="Shape" stroke="#FFA500" stroke-width="2.01923077"></path>
                <path d="M47.882138,17.5060603 L47.882138,27.0425239" id="Shape" stroke="#FFA500" stroke-width="2.01923077"></path>
                <path d="M42.4324767,18.7751832 L42.4324767,28.3116468" id="Shape" stroke="#FFA500" stroke-width="2.01923077"></path>
                <path d="M28.6951907,19.9102801 L28.6951907,29.4547852" id="Shape" stroke="#FFA500" stroke-width="2.01923077"></path>
                <path d="M35.7652408,19.4556228 L35.7652408,29.0041487" id="Shape" stroke="#FFA500" stroke-width="2.01923077"></path>
                <path d="M2.18351721,13.8698326 L2.18351721,23.4062961" id="Shape" stroke="#FFA500" stroke-width="2.01923077"></path>
                <path d="M5.35022596,15.6616567 L5.35022596,25.1981203" id="Shape" stroke="#FFA500" stroke-width="2.01923077"></path>
                <path d="M9.50824341,17.5060603 L9.50824341,27.0425239" id="Shape" stroke="#FFA500" stroke-width="2.01923077"></path>
                <path d="M14.9579046,18.7751832 L14.9579046,28.3116468" id="Shape" stroke="#FFA500" stroke-width="2.01923077"></path>
                <path d="M21.6241259,19.4556228 L21.6241259,29.0041487" id="Shape" stroke="#FFA500" stroke-width="2.01923077"></path>
                <path d="M27.7194969,5.40393661 C27.7185466,5.08840177 27.8991305,4.81827627 28.2551149,4.59371746 C28.6031319,4.36918037 29.017791,4.25965 29.5061425,4.26516474 C29.9942227,4.27067383 30.4313651,4.38969617 30.8230349,4.6222207 C31.2230201,4.8547398 31.4551486,5.12886449 31.5133937,5.44439392 C31.5718184,5.76016762 31.4296826,6.03005973 31.0807557,6.25461855 C30.7236682,6.47915564 30.2688764,6.58857182 29.7233725,6.58305731 C29.1775235,6.57756429 28.7024765,6.45863983 28.3034588,6.22611531 C28.0374469,6.07109896 27.842793,5.79703939 27.7194969,5.40393661 Z M28.1999569,7.955015 L31.569,7.9869267 L32.5434478,13.5635291 C32.7065167,14.4776469 32.1508728,15.1992764 30.8350885,15.7283797 C29.461706,16.257434 27.7340244,16.5151922 25.6975399,16.5016108 C23.6630302,16.4880402 21.8783728,16.1871323 20.3953901,15.5992559 L22.833125,14.242897 C23.6570944,14.6085037 24.5377093,14.7945826 25.4575469,14.8011503 C26.3780704,14.8076963 27.0837115,14.6927294 27.5677233,14.45695 C28.0428407,14.2208396 28.2756962,13.8906706 28.2728452,13.4663074" id="Fill-1-Copy-23" fill="#FFA500"></path>
                <path d="M57.3903814,9.95936703 C57.3903814,15.4605147 44.5409102,19.9187341 28.6951907,19.9187341 C12.8494712,19.9187341 0,15.4606178 0,9.95936703 C0,4.46224016 12.8494712,0 28.6951907,0 C44.5409102,0 57.3903814,4.46213706 57.3903814,9.95936703" id="Shape" stroke="#FFA500" stroke-width="2.01923077"></path>
                <path d="M52.0716094,25.2702881 C55.4207514,23.6433159 57.3866272,21.6498342 57.3866272,19.495212 L57.3905914,9.95874845 C57.3905914,4.46564236 44.5451788,0.0115468531 28.6954007,0.0115468531 C12.8456226,0.0115468531 0.000210031628,4.45358002 0.000210031628,9.95874845 L0.000210031628,19.5072743 C0.000210031628,25.0003804 12.8456226,29.4666414 28.6954007,29.4666414 C38.3464048,29.4666414 46.8677024,27.8154414 52.0322483,25.2823504" id="Shape" stroke="#FFA500" stroke-width="2.01923077"></path>
            </g>
            <g id="Group-41-Copy-9" transform="translate(3.750000, 25.250000)">
                <path d="M52.0716094,25.2702881 C55.4207514,23.6433159 57.3866272,21.6498342 57.3866272,19.495212 L57.3905914,9.95874845 C57.3905914,4.46564236 44.5451788,0.0115468531 28.6954007,0.0115468531 C12.8456226,0.0115468531 0.000210031629,4.45358002 0.000210031629,9.95874845 L0.000210031629,19.5072743 C0.000210031629,25.0003804 12.8456226,29.4666414 28.6954007,29.4666414 C38.3464048,29.4666414 46.8677024,27.8154414 52.0322483,25.2823504" id="Shape" fill="#FFFFFF"></path>
                <path d="M55.2068642,13.8698326 L55.2068642,23.4062961" id="Shape" stroke="#FFA500" stroke-width="2.01923077"></path>
                <path d="M52.0320382,15.6616567 L52.0320382,25.1981203" id="Shape" stroke="#FFA500" stroke-width="2.01923077"></path>
                <path d="M47.882138,17.5060603 L47.882138,27.0425239" id="Shape" stroke="#FFA500" stroke-width="2.01923077"></path>
                <path d="M42.4324767,18.7751832 L42.4324767,28.3116468" id="Shape" stroke="#FFA500" stroke-width="2.01923077"></path>
                <path d="M28.6951907,19.9102801 L28.6951907,29.4547852" id="Shape" stroke="#FFA500" stroke-width="2.01923077"></path>
                <path d="M35.7652408,19.4556228 L35.7652408,29.0041487" id="Shape" stroke="#FFA500" stroke-width="2.01923077"></path>
                <path d="M2.18351721,13.8698326 L2.18351721,23.4062961" id="Shape" stroke="#FFA500" stroke-width="2.01923077"></path>
                <path d="M5.35022596,15.6616567 L5.35022596,25.1981203" id="Shape" stroke="#FFA500" stroke-width="2.01923077"></path>
                <path d="M9.50824341,17.5060603 L9.50824341,27.0425239" id="Shape" stroke="#FFA500" stroke-width="2.01923077"></path>
                <path d="M14.9579046,18.7751832 L14.9579046,28.3116468" id="Shape" stroke="#FFA500" stroke-width="2.01923077"></path>
                <path d="M21.6241259,19.4556228 L21.6241259,29.0041487" id="Shape" stroke="#FFA500" stroke-width="2.01923077"></path>
                <path d="M27.7194969,5.40393661 C27.7185466,5.08840177 27.8991305,4.81827627 28.2551149,4.59371746 C28.6031319,4.36918037 29.017791,4.25965 29.5061425,4.26516474 C29.9942227,4.27067383 30.4313651,4.38969617 30.8230349,4.6222207 C31.2230201,4.8547398 31.4551486,5.12886449 31.5133937,5.44439392 C31.5718184,5.76016762 31.4296826,6.03005973 31.0807557,6.25461855 C30.7236682,6.47915564 30.2688764,6.58857182 29.7233725,6.58305731 C29.1775235,6.57756429 28.7024765,6.45863983 28.3034588,6.22611531 C28.0374469,6.07109896 27.842793,5.79703939 27.7194969,5.40393661 Z M28.1999569,7.955015 L31.569,7.9869267 L32.5434478,13.5635291 C32.7065167,14.4776469 32.1508728,15.1992764 30.8350885,15.7283797 C29.461706,16.257434 27.7340244,16.5151922 25.6975399,16.5016108 C23.6630302,16.4880402 21.8783728,16.1871323 20.3953901,15.5992559 L22.833125,14.242897 C23.6570944,14.6085037 24.5377093,14.7945826 25.4575469,14.8011503 C26.3780704,14.8076963 27.0837115,14.6927294 27.5677233,14.45695 C28.0428407,14.2208396 28.2756962,13.8906706 28.2728452,13.4663074" id="Fill-1-Copy-23" fill="#FFA500"></path>
                <path d="M57.3903814,9.95936703 C57.3903814,15.4605147 44.5409102,19.9187341 28.6951907,19.9187341 C12.8494712,19.9187341 0,15.4606178 0,9.95936703 C0,4.46224016 12.8494712,0 28.6951907,0 C44.5409102,0 57.3903814,4.46213706 57.3903814,9.95936703" id="Shape" stroke="#FFA500" stroke-width="2.01923077"></path>
                <path d="M52.0716094,25.2702881 C55.4207514,23.6433159 57.3866272,21.6498342 57.3866272,19.495212 L57.3905914,9.95874845 C57.3905914,4.46564236 44.5451788,0.0115468531 28.6954007,0.0115468531 C12.8456226,0.0115468531 0.000210031628,4.45358002 0.000210031628,9.95874845 L0.000210031628,19.5072743 C0.000210031628,25.0003804 12.8456226,29.4666414 28.6954007,29.4666414 C38.3464048,29.4666414 46.8677024,27.8154414 52.0322483,25.2823504" id="Shape" stroke="#FFA500" stroke-width="2.01923077"></path>
            </g>
            <g id="Group-41-Copy-10" transform="translate(8.250000, 11.750000)">
                <path d="M52.0716094,25.2702881 C55.4207514,23.6433159 57.3866272,21.6498342 57.3866272,19.495212 L57.3905914,9.95874845 C57.3905914,4.46564236 44.5451788,0.0115468531 28.6954007,0.0115468531 C12.8456226,0.0115468531 0.000210031629,4.45358002 0.000210031629,9.95874845 L0.000210031629,19.5072743 C0.000210031629,25.0003804 12.8456226,29.4666414 28.6954007,29.4666414 C38.3464048,29.4666414 46.8677024,27.8154414 52.0322483,25.2823504" id="Shape" fill="#FFFFFF"></path>
                <path d="M55.2068642,13.8698326 L55.2068642,23.4062961" id="Shape" stroke="#FFA500" stroke-width="2.01923077"></path>
                <path d="M52.0320382,15.6616567 L52.0320382,25.1981203" id="Shape" stroke="#FFA500" stroke-width="2.01923077"></path>
                <path d="M47.882138,17.5060603 L47.882138,27.0425239" id="Shape" stroke="#FFA500" stroke-width="2.01923077"></path>
                <path d="M42.4324767,18.7751832 L42.4324767,28.3116468" id="Shape" stroke="#FFA500" stroke-width="2.01923077"></path>
                <path d="M28.6951907,19.9102801 L28.6951907,29.4547852" id="Shape" stroke="#FFA500" stroke-width="2.01923077"></path>
                <path d="M35.7652408,19.4556228 L35.7652408,29.0041487" id="Shape" stroke="#FFA500" stroke-width="2.01923077"></path>
                <path d="M2.18351721,13.8698326 L2.18351721,23.4062961" id="Shape" stroke="#FFA500" stroke-width="2.01923077"></path>
                <path d="M5.35022596,15.6616567 L5.35022596,25.1981203" id="Shape" stroke="#FFA500" stroke-width="2.01923077"></path>
                <path d="M9.50824341,17.5060603 L9.50824341,27.0425239" id="Shape" stroke="#FFA500" stroke-width="2.01923077"></path>
                <path d="M14.9579046,18.7751832 L14.9579046,28.3116468" id="Shape" stroke="#FFA500" stroke-width="2.01923077"></path>
                <path d="M21.6241259,19.4556228 L21.6241259,29.0041487" id="Shape" stroke="#FFA500" stroke-width="2.01923077"></path>
                <path d="M27.7194969,5.40393661 C27.7185466,5.08840177 27.8991305,4.81827627 28.2551149,4.59371746 C28.6031319,4.36918037 29.017791,4.25965 29.5061425,4.26516474 C29.9942227,4.27067383 30.4313651,4.38969617 30.8230349,4.6222207 C31.2230201,4.8547398 31.4551486,5.12886449 31.5133937,5.44439392 C31.5718184,5.76016762 31.4296826,6.03005973 31.0807557,6.25461855 C30.7236682,6.47915564 30.2688764,6.58857182 29.7233725,6.58305731 C29.1775235,6.57756429 28.7024765,6.45863983 28.3034588,6.22611531 C28.0374469,6.07109896 27.842793,5.79703939 27.7194969,5.40393661 Z M28.1999569,7.955015 L31.569,7.9869267 L32.5434478,13.5635291 C32.7065167,14.4776469 32.1508728,15.1992764 30.8350885,15.7283797 C29.461706,16.257434 27.7340244,16.5151922 25.6975399,16.5016108 C23.6630302,16.4880402 21.8783728,16.1871323 20.3953901,15.5992559 L22.833125,14.242897 C23.6570944,14.6085037 24.5377093,14.7945826 25.4575469,14.8011503 C26.3780704,14.8076963 27.0837115,14.6927294 27.5677233,14.45695 C28.0428407,14.2208396 28.2756962,13.8906706 28.2728452,13.4663074" id="Fill-1-Copy-23" fill="#FFA500"></path>
                <path d="M57.3903814,9.95936703 C57.3903814,15.4605147 44.5409102,19.9187341 28.6951907,19.9187341 C12.8494712,19.9187341 0,15.4606178 0,9.95936703 C0,4.46224016 12.8494712,0 28.6951907,0 C44.5409102,0 57.3903814,4.46213706 57.3903814,9.95936703" id="Shape" stroke="#FFA500" stroke-width="2.01923077"></path>
                <path d="M52.0716094,25.2702881 C55.4207514,23.6433159 57.3866272,21.6498342 57.3866272,19.495212 L57.3905914,9.95874845 C57.3905914,4.46564236 44.5451788,0.0115468531 28.6954007,0.0115468531 C12.8456226,0.0115468531 0.000210031628,4.45358002 0.000210031628,9.95874845 L0.000210031628,19.5072743 C0.000210031628,25.0003804 12.8456226,29.4666414 28.6954007,29.4666414 C38.3464048,29.4666414 46.8677024,27.8154414 52.0322483,25.2823504" id="Shape" stroke="#FFA500" stroke-width="2.01923077"></path>
            </g>
            <g id="Group-41-Copy-11" transform="translate(12.750000, 0.250000)">
                <path d="M52.0716094,25.2702881 C55.4207514,23.6433159 57.3866272,21.6498342 57.3866272,19.495212 L57.3905914,9.95874845 C57.3905914,4.46564236 44.5451788,0.0115468531 28.6954007,0.0115468531 C12.8456226,0.0115468531 0.000210031629,4.45358002 0.000210031629,9.95874845 L0.000210031629,19.5072743 C0.000210031629,25.0003804 12.8456226,29.4666414 28.6954007,29.4666414 C38.3464048,29.4666414 46.8677024,27.8154414 52.0322483,25.2823504" id="Shape" fill="#FFFFFF"></path>
                <path d="M55.2068642,13.8698326 L55.2068642,23.4062961" id="Shape" stroke="#FFA500" stroke-width="2.01923077"></path>
                <path d="M52.0320382,15.6616567 L52.0320382,25.1981203" id="Shape" stroke="#FFA500" stroke-width="2.01923077"></path>
                <path d="M47.882138,17.5060603 L47.882138,27.0425239" id="Shape" stroke="#FFA500" stroke-width="2.01923077"></path>
                <path d="M42.4324767,18.7751832 L42.4324767,28.3116468" id="Shape" stroke="#FFA500" stroke-width="2.01923077"></path>
                <path d="M28.6951907,19.9102801 L28.6951907,29.4547852" id="Shape" stroke="#FFA500" stroke-width="2.01923077"></path>
                <path d="M35.7652408,19.4556228 L35.7652408,29.0041487" id="Shape" stroke="#FFA500" stroke-width="2.01923077"></path>
                <path d="M2.18351721,13.8698326 L2.18351721,23.4062961" id="Shape" stroke="#FFA500" stroke-width="2.01923077"></path>
                <path d="M5.35022596,15.6616567 L5.35022596,25.1981203" id="Shape" stroke="#FFA500" stroke-width="2.01923077"></path>
                <path d="M9.50824341,17.5060603 L9.50824341,27.0425239" id="Shape" stroke="#FFA500" stroke-width="2.01923077"></path>
                <path d="M14.9579046,18.7751832 L14.9579046,28.3116468" id="Shape" stroke="#FFA500" stroke-width="2.01923077"></path>
                <path d="M21.6241259,19.4556228 L21.6241259,29.0041487" id="Shape" stroke="#FFA500" stroke-width="2.01923077"></path>
                <path d="M27.7194969,5.40393661 C27.7185466,5.08840177 27.8991305,4.81827627 28.2551149,4.59371746 C28.6031319,4.36918037 29.017791,4.25965 29.5061425,4.26516474 C29.9942227,4.27067383 30.4313651,4.38969617 30.8230349,4.6222207 C31.2230201,4.8547398 31.4551486,5.12886449 31.5133937,5.44439392 C31.5718184,5.76016762 31.4296826,6.03005973 31.0807557,6.25461855 C30.7236682,6.47915564 30.2688764,6.58857182 29.7233725,6.58305731 C29.1775235,6.57756429 28.7024765,6.45863983 28.3034588,6.22611531 C28.0374469,6.07109896 27.842793,5.79703939 27.7194969,5.40393661 Z M28.1999569,7.955015 L31.569,7.9869267 L32.5434478,13.5635291 C32.7065167,14.4776469 32.1508728,15.1992764 30.8350885,15.7283797 C29.461706,16.257434 27.7340244,16.5151922 25.6975399,16.5016108 C23.6630302,16.4880402 21.8783728,16.1871323 20.3953901,15.5992559 L22.833125,14.242897 C23.6570944,14.6085037 24.5377093,14.7945826 25.4575469,14.8011503 C26.3780704,14.8076963 27.0837115,14.6927294 27.5677233,14.45695 C28.0428407,14.2208396 28.2756962,13.8906706 28.2728452,13.4663074" id="Fill-1-Copy-23" fill="#FFA500"></path>
                <path d="M57.3903814,9.95936703 C57.3903814,15.4605147 44.5409102,19.9187341 28.6951907,19.9187341 C12.8494712,19.9187341 0,15.4606178 0,9.95936703 C0,4.46224016 12.8494712,0 28.6951907,0 C44.5409102,0 57.3903814,4.46213706 57.3903814,9.95936703" id="Shape" stroke="#FFA500" stroke-width="2.01923077"></path>
                <path d="M52.0716094,25.2702881 C55.4207514,23.6433159 57.3866272,21.6498342 57.3866272,19.495212 L57.3905914,9.95874845 C57.3905914,4.46564236 44.5451788,0.0115468531 28.6954007,0.0115468531 C12.8456226,0.0115468531 0.000210031628,4.45358002 0.000210031628,9.95874845 L0.000210031628,19.5072743 C0.000210031628,25.0003804 12.8456226,29.4666414 28.6954007,29.4666414 C38.3464048,29.4666414 46.8677024,27.8154414 52.0322483,25.2823504" id="Shape" stroke="#FFA500" stroke-width="2.01923077"></path>
            </g>
        </g>
    </g>
</svg>