<?xml version="1.0" encoding="UTF-8"?>
<svg width="75px" height="167px" viewBox="0 0 75 167" version="1.1" xmlns="http://www.w3.org/2000/svg" xmlns:xlink="http://www.w3.org/1999/xlink">
    <!-- Generator: Sketch 49.3 (51167) - http://www.bohemiancoding.com/sketch -->
    <title>JayCoin_Stack_Tier3_v2</title>
    <desc>Created with Sketch.</desc>
    <defs></defs>
    <g id="JayCoin_Stack_Tier3_v2" stroke="none" stroke-width="1" fill="none" fill-rule="evenodd">
        <g id="Group-Copy" transform="translate(2.000000, 38.000000)">
            <g id="Group-41-Copy" transform="translate(10.264360, 99.385214)">
                <path d="M52.430724,25.3686161 C55.8029635,23.7353132 57.782397,21.7340748 57.782397,19.5710688 L57.7863886,9.99749845 C57.7863886,4.4830184 44.8523869,0.0115917825 28.8933,0.0115917825 C12.9342131,0.0115917825 0.000211480123,4.47090913 0.000211480123,9.99749845 L0.000211480123,19.5831781 C0.000211480123,25.0976582 12.9342131,29.5812976 28.8933,29.5812976 C38.6108627,29.5812976 47.190928,27.9236726 52.3910914,25.3807254" id="Shape" fill="#FFFFFF"></path>
                <path d="M55.5876011,13.9238008 L55.5876011,23.4973712" id="Shape" stroke="#FFA500" stroke-width="2.01923077"></path>
                <path d="M52.3908799,15.722597 L52.3908799,25.2961674" id="Shape" stroke="#FFA500" stroke-width="2.01923077"></path>
                <path d="M48.2123596,17.5741773 L48.2123596,27.1477477" id="Shape" stroke="#FFA500" stroke-width="2.01923077"></path>
                <path d="M42.7251145,18.8482384 L42.7251145,28.4218088" id="Shape" stroke="#FFA500" stroke-width="2.01923077"></path>
                <path d="M28.8930886,19.987752 L28.8930886,29.5693953" id="Shape" stroke="#FFA500" stroke-width="2.01923077"></path>
                <path d="M36.0118977,19.5313256 L36.0118977,29.1170053" id="Shape" stroke="#FFA500" stroke-width="2.01923077"></path>
                <path d="M2.19857595,13.9238008 L2.19857595,23.4973712" id="Shape" stroke="#FFA500" stroke-width="2.01923077"></path>
                <path d="M5.38712407,15.722597 L5.38712407,25.2961674" id="Shape" stroke="#FFA500" stroke-width="2.01923077"></path>
                <path d="M9.5738175,17.5741773 L9.5738175,27.1477477" id="Shape" stroke="#FFA500" stroke-width="2.01923077"></path>
                <path d="M15.0610626,18.8482384 L15.0610626,28.4218088" id="Shape" stroke="#FFA500" stroke-width="2.01923077"></path>
                <path d="M21.7732578,19.5313256 L21.7732578,29.1170053" id="Shape" stroke="#FFA500" stroke-width="2.01923077"></path>
                <path d="M27.9106659,5.4249636 C27.909709,5.108201 28.0915383,4.83702443 28.4499778,4.61159185 C28.8003949,4.38618107 29.2179137,4.27622451 29.7096332,4.28176071 C30.2010794,4.28729124 30.6412365,4.4067767 31.0356075,4.64020599 C31.4383512,4.87362984 31.6720807,5.14882116 31.7307275,5.46557833 C31.789555,5.78258072 31.646439,6.053523 31.2951057,6.27895558 C30.9355555,6.50436636 30.4776273,6.61420828 29.9283613,6.60867232 C29.3787478,6.60315792 28.9004246,6.48377073 28.498655,6.25034144 C28.2308086,6.09472191 28.0348123,5.81959597 27.9106659,5.4249636 Z M28.3944394,7.98596837 L31.7867173,8.01800424 L32.7678854,13.6163055 C32.9320788,14.5339802 32.3726029,15.2584175 31.0477443,15.7895796 C29.6648901,16.3206925 27.9252936,16.5794536 25.8747643,16.5658194 C23.8262235,16.552196 22.0292582,16.2501172 20.536048,15.6599534 L22.9905949,14.2983169 C23.8202467,14.6653461 24.7069349,14.852149 25.6331162,14.8587423 C26.5599881,14.8653138 27.2704957,14.7498995 27.7578455,14.5132028 C28.2362396,14.2761736 28.470701,13.9447199 28.4678303,13.5187055" id="Fill-1-Copy-23" fill="#FFA500"></path>
                <path d="M57.7861771,9.99811943 C57.7861771,15.5206723 44.8480889,19.9962389 28.8930886,19.9962389 C12.9380882,19.9962389 0,15.5207758 0,9.99811943 C0,4.47960296 12.9380882,0 28.8930886,0 C44.8480889,0 57.7861771,4.47949946 57.7861771,9.99811943" id="Shape" stroke="#FFA500" stroke-width="2.01923077"></path>
                <path d="M52.430724,25.3686161 C55.8029635,23.7353132 57.782397,21.7340748 57.782397,19.5710688 L57.7863886,9.99749845 C57.7863886,4.4830184 44.8523869,0.0115917825 28.8933,0.0115917825 C12.9342131,0.0115917825 0.000211480122,4.47090913 0.000211480122,9.99749845 L0.000211480122,19.5831781 C0.000211480122,25.0976582 12.9342131,29.5812976 28.8933,29.5812976 C38.6108627,29.5812976 47.190928,27.9236726 52.3910914,25.3807254" id="Shape" stroke="#FFA500" stroke-width="2.01923077"></path>
            </g>
            <g id="Group-41-Copy-2" transform="translate(0.032566, 85.330739)">
                <path d="M52.430724,25.3686161 C55.8029635,23.7353132 57.782397,21.7340748 57.782397,19.5710688 L57.7863886,9.99749845 C57.7863886,4.4830184 44.8523869,0.0115917825 28.8933,0.0115917825 C12.9342131,0.0115917825 0.000211480123,4.47090913 0.000211480123,9.99749845 L0.000211480123,19.5831781 C0.000211480123,25.0976582 12.9342131,29.5812976 28.8933,29.5812976 C38.6108627,29.5812976 47.190928,27.9236726 52.3910914,25.3807254" id="Shape" fill="#FFFFFF"></path>
                <path d="M55.5876011,13.9238008 L55.5876011,23.4973712" id="Shape" stroke="#FFA500" stroke-width="2.01923077"></path>
                <path d="M52.3908799,15.722597 L52.3908799,25.2961674" id="Shape" stroke="#FFA500" stroke-width="2.01923077"></path>
                <path d="M48.2123596,17.5741773 L48.2123596,27.1477477" id="Shape" stroke="#FFA500" stroke-width="2.01923077"></path>
                <path d="M42.7251145,18.8482384 L42.7251145,28.4218088" id="Shape" stroke="#FFA500" stroke-width="2.01923077"></path>
                <path d="M28.8930886,19.987752 L28.8930886,29.5693953" id="Shape" stroke="#FFA500" stroke-width="2.01923077"></path>
                <path d="M36.0118977,19.5313256 L36.0118977,29.1170053" id="Shape" stroke="#FFA500" stroke-width="2.01923077"></path>
                <path d="M2.19857595,13.9238008 L2.19857595,23.4973712" id="Shape" stroke="#FFA500" stroke-width="2.01923077"></path>
                <path d="M5.38712407,15.722597 L5.38712407,25.2961674" id="Shape" stroke="#FFA500" stroke-width="2.01923077"></path>
                <path d="M9.5738175,17.5741773 L9.5738175,27.1477477" id="Shape" stroke="#FFA500" stroke-width="2.01923077"></path>
                <path d="M15.0610626,18.8482384 L15.0610626,28.4218088" id="Shape" stroke="#FFA500" stroke-width="2.01923077"></path>
                <path d="M21.7732578,19.5313256 L21.7732578,29.1170053" id="Shape" stroke="#FFA500" stroke-width="2.01923077"></path>
                <path d="M27.9106659,5.4249636 C27.909709,5.108201 28.0915383,4.83702443 28.4499778,4.61159185 C28.8003949,4.38618107 29.2179137,4.27622451 29.7096332,4.28176071 C30.2010794,4.28729124 30.6412365,4.4067767 31.0356075,4.64020599 C31.4383512,4.87362984 31.6720807,5.14882116 31.7307275,5.46557833 C31.789555,5.78258072 31.646439,6.053523 31.2951057,6.27895558 C30.9355555,6.50436636 30.4776273,6.61420828 29.9283613,6.60867232 C29.3787478,6.60315792 28.9004246,6.48377073 28.498655,6.25034144 C28.2308086,6.09472191 28.0348123,5.81959597 27.9106659,5.4249636 Z M28.3944394,7.98596837 L31.7867173,8.01800424 L32.7678854,13.6163055 C32.9320788,14.5339802 32.3726029,15.2584175 31.0477443,15.7895796 C29.6648901,16.3206925 27.9252936,16.5794536 25.8747643,16.5658194 C23.8262235,16.552196 22.0292582,16.2501172 20.536048,15.6599534 L22.9905949,14.2983169 C23.8202467,14.6653461 24.7069349,14.852149 25.6331162,14.8587423 C26.5599881,14.8653138 27.2704957,14.7498995 27.7578455,14.5132028 C28.2362396,14.2761736 28.470701,13.9447199 28.4678303,13.5187055" id="Fill-1-Copy-23" fill="#3A3A3A"></path>
                <path d="M57.7861771,9.99811943 C57.7861771,15.5206723 44.8480889,19.9962389 28.8930886,19.9962389 C12.9380882,19.9962389 0,15.5207758 0,9.99811943 C0,4.47960296 12.9380882,0 28.8930886,0 C44.8480889,0 57.7861771,4.47949946 57.7861771,9.99811943" id="Shape" stroke="#FFA500" stroke-width="2.01923077"></path>
                <path d="M52.430724,25.3686161 C55.8029635,23.7353132 57.782397,21.7340748 57.782397,19.5710688 L57.7863886,9.99749845 C57.7863886,4.4830184 44.8523869,0.0115917825 28.8933,0.0115917825 C12.9342131,0.0115917825 0.000211480122,4.47090913 0.000211480122,9.99749845 L0.000211480122,19.5831781 C0.000211480122,25.0976582 12.9342131,29.5812976 28.8933,29.5812976 C38.6108627,29.5812976 47.190928,27.9236726 52.3910914,25.3807254" id="Shape" stroke="#FFA500" stroke-width="2.01923077"></path>
            </g>
            <g id="Group-41-Copy-3" transform="translate(6.171642, 73.284047)">
                <path d="M52.430724,25.3686161 C55.8029635,23.7353132 57.782397,21.7340748 57.782397,19.5710688 L57.7863886,9.99749845 C57.7863886,4.4830184 44.8523869,0.0115917825 28.8933,0.0115917825 C12.9342131,0.0115917825 0.000211480123,4.47090913 0.000211480123,9.99749845 L0.000211480123,19.5831781 C0.000211480123,25.0976582 12.9342131,29.5812976 28.8933,29.5812976 C38.6108627,29.5812976 47.190928,27.9236726 52.3910914,25.3807254" id="Shape" fill="#FFFFFF"></path>
                <path d="M55.5876011,13.9238008 L55.5876011,23.4973712" id="Shape" stroke="#FFA500" stroke-width="2.01923077"></path>
                <path d="M52.3908799,15.722597 L52.3908799,25.2961674" id="Shape" stroke="#FFA500" stroke-width="2.01923077"></path>
                <path d="M48.2123596,17.5741773 L48.2123596,27.1477477" id="Shape" stroke="#FFA500" stroke-width="2.01923077"></path>
                <path d="M42.7251145,18.8482384 L42.7251145,28.4218088" id="Shape" stroke="#FFA500" stroke-width="2.01923077"></path>
                <path d="M28.8930886,19.987752 L28.8930886,29.5693953" id="Shape" stroke="#FFA500" stroke-width="2.01923077"></path>
                <path d="M36.0118977,19.5313256 L36.0118977,29.1170053" id="Shape" stroke="#FFA500" stroke-width="2.01923077"></path>
                <path d="M2.19857595,13.9238008 L2.19857595,23.4973712" id="Shape" stroke="#FFA500" stroke-width="2.01923077"></path>
                <path d="M5.38712407,15.722597 L5.38712407,25.2961674" id="Shape" stroke="#FFA500" stroke-width="2.01923077"></path>
                <path d="M9.5738175,17.5741773 L9.5738175,27.1477477" id="Shape" stroke="#FFA500" stroke-width="2.01923077"></path>
                <path d="M15.0610626,18.8482384 L15.0610626,28.4218088" id="Shape" stroke="#FFA500" stroke-width="2.01923077"></path>
                <path d="M21.7732578,19.5313256 L21.7732578,29.1170053" id="Shape" stroke="#FFA500" stroke-width="2.01923077"></path>
                <path d="M27.9106659,5.4249636 C27.909709,5.108201 28.0915383,4.83702443 28.4499778,4.61159185 C28.8003949,4.38618107 29.2179137,4.27622451 29.7096332,4.28176071 C30.2010794,4.28729124 30.6412365,4.4067767 31.0356075,4.64020599 C31.4383512,4.87362984 31.6720807,5.14882116 31.7307275,5.46557833 C31.789555,5.78258072 31.646439,6.053523 31.2951057,6.27895558 C30.9355555,6.50436636 30.4776273,6.61420828 29.9283613,6.60867232 C29.3787478,6.60315792 28.9004246,6.48377073 28.498655,6.25034144 C28.2308086,6.09472191 28.0348123,5.81959597 27.9106659,5.4249636 Z M28.3944394,7.98596837 L31.7867173,8.01800424 L32.7678854,13.6163055 C32.9320788,14.5339802 32.3726029,15.2584175 31.0477443,15.7895796 C29.6648901,16.3206925 27.9252936,16.5794536 25.8747643,16.5658194 C23.8262235,16.552196 22.0292582,16.2501172 20.536048,15.6599534 L22.9905949,14.2983169 C23.8202467,14.6653461 24.7069349,14.852149 25.6331162,14.8587423 C26.5599881,14.8653138 27.2704957,14.7498995 27.7578455,14.5132028 C28.2362396,14.2761736 28.470701,13.9447199 28.4678303,13.5187055" id="Fill-1-Copy-23" fill="#3A3A3A"></path>
                <path d="M57.7861771,9.99811943 C57.7861771,15.5206723 44.8480889,19.9962389 28.8930886,19.9962389 C12.9380882,19.9962389 0,15.5207758 0,9.99811943 C0,4.47960296 12.9380882,0 28.8930886,0 C44.8480889,0 57.7861771,4.47949946 57.7861771,9.99811943" id="Shape" stroke="#FFA500" stroke-width="2.01923077"></path>
                <path d="M52.430724,25.3686161 C55.8029635,23.7353132 57.782397,21.7340748 57.782397,19.5710688 L57.7863886,9.99749845 C57.7863886,4.4830184 44.8523869,0.0115917825 28.8933,0.0115917825 C12.9342131,0.0115917825 0.000211480122,4.47090913 0.000211480122,9.99749845 L0.000211480122,19.5831781 C0.000211480122,25.0976582 12.9342131,29.5812976 28.8933,29.5812976 C38.6108627,29.5812976 47.190928,27.9236726 52.3910914,25.3807254" id="Shape" stroke="#FFA500" stroke-width="2.01923077"></path>
            </g>
            <g id="Group-41-Copy-3" transform="translate(12.310719, 61.237354)">
                <path d="M52.430724,25.3686161 C55.8029635,23.7353132 57.782397,21.7340748 57.782397,19.5710688 L57.7863886,9.99749845 C57.7863886,4.4830184 44.8523869,0.0115917825 28.8933,0.0115917825 C12.9342131,0.0115917825 0.000211480123,4.47090913 0.000211480123,9.99749845 L0.000211480123,19.5831781 C0.000211480123,25.0976582 12.9342131,29.5812976 28.8933,29.5812976 C38.6108627,29.5812976 47.190928,27.9236726 52.3910914,25.3807254" id="Shape" fill="#FFFFFF"></path>
                <path d="M55.5876011,13.9238008 L55.5876011,23.4973712" id="Shape" stroke="#FFA500" stroke-width="2.01923077"></path>
                <path d="M52.3908799,15.722597 L52.3908799,25.2961674" id="Shape" stroke="#FFA500" stroke-width="2.01923077"></path>
                <path d="M48.2123596,17.5741773 L48.2123596,27.1477477" id="Shape" stroke="#FFA500" stroke-width="2.01923077"></path>
                <path d="M42.7251145,18.8482384 L42.7251145,28.4218088" id="Shape" stroke="#FFA500" stroke-width="2.01923077"></path>
                <path d="M28.8930886,19.987752 L28.8930886,29.5693953" id="Shape" stroke="#FFA500" stroke-width="2.01923077"></path>
                <path d="M36.0118977,19.5313256 L36.0118977,29.1170053" id="Shape" stroke="#FFA500" stroke-width="2.01923077"></path>
                <path d="M2.19857595,13.9238008 L2.19857595,23.4973712" id="Shape" stroke="#FFA500" stroke-width="2.01923077"></path>
                <path d="M5.38712407,15.722597 L5.38712407,25.2961674" id="Shape" stroke="#FFA500" stroke-width="2.01923077"></path>
                <path d="M9.5738175,17.5741773 L9.5738175,27.1477477" id="Shape" stroke="#FFA500" stroke-width="2.01923077"></path>
                <path d="M15.0610626,18.8482384 L15.0610626,28.4218088" id="Shape" stroke="#FFA500" stroke-width="2.01923077"></path>
                <path d="M21.7732578,19.5313256 L21.7732578,29.1170053" id="Shape" stroke="#FFA500" stroke-width="2.01923077"></path>
                <path d="M27.9106659,5.4249636 C27.909709,5.108201 28.0915383,4.83702443 28.4499778,4.61159185 C28.8003949,4.38618107 29.2179137,4.27622451 29.7096332,4.28176071 C30.2010794,4.28729124 30.6412365,4.4067767 31.0356075,4.64020599 C31.4383512,4.87362984 31.6720807,5.14882116 31.7307275,5.46557833 C31.789555,5.78258072 31.646439,6.053523 31.2951057,6.27895558 C30.9355555,6.50436636 30.4776273,6.61420828 29.9283613,6.60867232 C29.3787478,6.60315792 28.9004246,6.48377073 28.498655,6.25034144 C28.2308086,6.09472191 28.0348123,5.81959597 27.9106659,5.4249636 Z M28.3944394,7.98596837 L31.7867173,8.01800424 L32.7678854,13.6163055 C32.9320788,14.5339802 32.3726029,15.2584175 31.0477443,15.7895796 C29.6648901,16.3206925 27.9252936,16.5794536 25.8747643,16.5658194 C23.8262235,16.552196 22.0292582,16.2501172 20.536048,15.6599534 L22.9905949,14.2983169 C23.8202467,14.6653461 24.7069349,14.852149 25.6331162,14.8587423 C26.5599881,14.8653138 27.2704957,14.7498995 27.7578455,14.5132028 C28.2362396,14.2761736 28.470701,13.9447199 28.4678303,13.5187055" id="Fill-1-Copy-23" fill="#FFA500"></path>
                <path d="M57.7861771,9.99811943 C57.7861771,15.5206723 44.8480889,19.9962389 28.8930886,19.9962389 C12.9380882,19.9962389 0,15.5207758 0,9.99811943 C0,4.47960296 12.9380882,0 28.8930886,0 C44.8480889,0 57.7861771,4.47949946 57.7861771,9.99811943" id="Shape" stroke="#FFA500" stroke-width="2.01923077"></path>
                <path d="M52.430724,25.3686161 C55.8029635,23.7353132 57.782397,21.7340748 57.782397,19.5710688 L57.7863886,9.99749845 C57.7863886,4.4830184 44.8523869,0.0115917825 28.8933,0.0115917825 C12.9342131,0.0115917825 0.000211480122,4.47090913 0.000211480122,9.99749845 L0.000211480122,19.5831781 C0.000211480122,25.0976582 12.9342131,29.5812976 28.8933,29.5812976 C38.6108627,29.5812976 47.190928,27.9236726 52.3910914,25.3807254" id="Shape" stroke="#FFA500" stroke-width="2.01923077"></path>
            </g>
            <g id="Group-41-Copy-4" transform="translate(6.041379, 48.186770)">
                <path d="M52.430724,25.3686161 C55.8029635,23.7353132 57.782397,21.7340748 57.782397,19.5710688 L57.7863886,9.99749845 C57.7863886,4.4830184 44.8523869,0.0115917825 28.8933,0.0115917825 C12.9342131,0.0115917825 0.000211480123,4.47090913 0.000211480123,9.99749845 L0.000211480123,19.5831781 C0.000211480123,25.0976582 12.9342131,29.5812976 28.8933,29.5812976 C38.6108627,29.5812976 47.190928,27.9236726 52.3910914,25.3807254" id="Shape" fill="#FFFFFF"></path>
                <path d="M55.5876011,13.9238008 L55.5876011,23.4973712" id="Shape" stroke="#FFA500" stroke-width="2.01923077"></path>
                <path d="M52.3908799,15.722597 L52.3908799,25.2961674" id="Shape" stroke="#FFA500" stroke-width="2.01923077"></path>
                <path d="M48.2123596,17.5741773 L48.2123596,27.1477477" id="Shape" stroke="#FFA500" stroke-width="2.01923077"></path>
                <path d="M42.7251145,18.8482384 L42.7251145,28.4218088" id="Shape" stroke="#FFA500" stroke-width="2.01923077"></path>
                <path d="M28.8930886,19.987752 L28.8930886,29.5693953" id="Shape" stroke="#FFA500" stroke-width="2.01923077"></path>
                <path d="M36.0118977,19.5313256 L36.0118977,29.1170053" id="Shape" stroke="#FFA500" stroke-width="2.01923077"></path>
                <path d="M2.19857595,13.9238008 L2.19857595,23.4973712" id="Shape" stroke="#FFA500" stroke-width="2.01923077"></path>
                <path d="M5.38712407,15.722597 L5.38712407,25.2961674" id="Shape" stroke="#FFA500" stroke-width="2.01923077"></path>
                <path d="M9.5738175,17.5741773 L9.5738175,27.1477477" id="Shape" stroke="#FFA500" stroke-width="2.01923077"></path>
                <path d="M15.0610626,18.8482384 L15.0610626,28.4218088" id="Shape" stroke="#FFA500" stroke-width="2.01923077"></path>
                <path d="M21.7732578,19.5313256 L21.7732578,29.1170053" id="Shape" stroke="#FFA500" stroke-width="2.01923077"></path>
                <path d="M27.9106659,5.4249636 C27.909709,5.108201 28.0915383,4.83702443 28.4499778,4.61159185 C28.8003949,4.38618107 29.2179137,4.27622451 29.7096332,4.28176071 C30.2010794,4.28729124 30.6412365,4.4067767 31.0356075,4.64020599 C31.4383512,4.87362984 31.6720807,5.14882116 31.7307275,5.46557833 C31.789555,5.78258072 31.646439,6.053523 31.2951057,6.27895558 C30.9355555,6.50436636 30.4776273,6.61420828 29.9283613,6.60867232 C29.3787478,6.60315792 28.9004246,6.48377073 28.498655,6.25034144 C28.2308086,6.09472191 28.0348123,5.81959597 27.9106659,5.4249636 Z M28.3944394,7.98596837 L31.7867173,8.01800424 L32.7678854,13.6163055 C32.9320788,14.5339802 32.3726029,15.2584175 31.0477443,15.7895796 C29.6648901,16.3206925 27.9252936,16.5794536 25.8747643,16.5658194 C23.8262235,16.552196 22.0292582,16.2501172 20.536048,15.6599534 L22.9905949,14.2983169 C23.8202467,14.6653461 24.7069349,14.852149 25.6331162,14.8587423 C26.5599881,14.8653138 27.2704957,14.7498995 27.7578455,14.5132028 C28.2362396,14.2761736 28.470701,13.9447199 28.4678303,13.5187055" id="Fill-1-Copy-23" fill="#FFA500"></path>
                <path d="M57.7861771,9.99811943 C57.7861771,15.5206723 44.8480889,19.9962389 28.8930886,19.9962389 C12.9380882,19.9962389 0,15.5207758 0,9.99811943 C0,4.47960296 12.9380882,0 28.8930886,0 C44.8480889,0 57.7861771,4.47949946 57.7861771,9.99811943" id="Shape" stroke="#FFA500" stroke-width="2.01923077"></path>
                <path d="M52.430724,25.3686161 C55.8029635,23.7353132 57.782397,21.7340748 57.782397,19.5710688 L57.7863886,9.99749845 C57.7863886,4.4830184 44.8523869,0.0115917825 28.8933,0.0115917825 C12.9342131,0.0115917825 0.000211480122,4.47090913 0.000211480122,9.99749845 L0.000211480122,19.5831781 C0.000211480122,25.0976582 12.9342131,29.5812976 28.8933,29.5812976 C38.6108627,29.5812976 47.190928,27.9236726 52.3910914,25.3807254" id="Shape" stroke="#FFA500" stroke-width="2.01923077"></path>
            </g>
            <g id="Group-41-Copy-5" transform="translate(14.851724, 36.642023)">
                <path d="M52.430724,25.3686161 C55.8029635,23.7353132 57.782397,21.7340748 57.782397,19.5710688 L57.7863886,9.99749845 C57.7863886,4.4830184 44.8523869,0.0115917825 28.8933,0.0115917825 C12.9342131,0.0115917825 0.000211480123,4.47090913 0.000211480123,9.99749845 L0.000211480123,19.5831781 C0.000211480123,25.0976582 12.9342131,29.5812976 28.8933,29.5812976 C38.6108627,29.5812976 47.190928,27.9236726 52.3910914,25.3807254" id="Shape" fill="#FFFFFF"></path>
                <path d="M55.5876011,13.9238008 L55.5876011,23.4973712" id="Shape" stroke="#FFA500" stroke-width="2.01923077"></path>
                <path d="M52.3908799,15.722597 L52.3908799,25.2961674" id="Shape" stroke="#FFA500" stroke-width="2.01923077"></path>
                <path d="M48.2123596,17.5741773 L48.2123596,27.1477477" id="Shape" stroke="#FFA500" stroke-width="2.01923077"></path>
                <path d="M42.7251145,18.8482384 L42.7251145,28.4218088" id="Shape" stroke="#FFA500" stroke-width="2.01923077"></path>
                <path d="M28.8930886,19.987752 L28.8930886,29.5693953" id="Shape" stroke="#FFA500" stroke-width="2.01923077"></path>
                <path d="M36.0118977,19.5313256 L36.0118977,29.1170053" id="Shape" stroke="#FFA500" stroke-width="2.01923077"></path>
                <path d="M2.19857595,13.9238008 L2.19857595,23.4973712" id="Shape" stroke="#FFA500" stroke-width="2.01923077"></path>
                <path d="M5.38712407,15.722597 L5.38712407,25.2961674" id="Shape" stroke="#FFA500" stroke-width="2.01923077"></path>
                <path d="M9.5738175,17.5741773 L9.5738175,27.1477477" id="Shape" stroke="#FFA500" stroke-width="2.01923077"></path>
                <path d="M15.0610626,18.8482384 L15.0610626,28.4218088" id="Shape" stroke="#FFA500" stroke-width="2.01923077"></path>
                <path d="M21.7732578,19.5313256 L21.7732578,29.1170053" id="Shape" stroke="#FFA500" stroke-width="2.01923077"></path>
                <path d="M27.9106659,5.4249636 C27.909709,5.108201 28.0915383,4.83702443 28.4499778,4.61159185 C28.8003949,4.38618107 29.2179137,4.27622451 29.7096332,4.28176071 C30.2010794,4.28729124 30.6412365,4.4067767 31.0356075,4.64020599 C31.4383512,4.87362984 31.6720807,5.14882116 31.7307275,5.46557833 C31.789555,5.78258072 31.646439,6.053523 31.2951057,6.27895558 C30.9355555,6.50436636 30.4776273,6.61420828 29.9283613,6.60867232 C29.3787478,6.60315792 28.9004246,6.48377073 28.498655,6.25034144 C28.2308086,6.09472191 28.0348123,5.81959597 27.9106659,5.4249636 Z M28.3944394,7.98596837 L31.7867173,8.01800424 L32.7678854,13.6163055 C32.9320788,14.5339802 32.3726029,15.2584175 31.0477443,15.7895796 C29.6648901,16.3206925 27.9252936,16.5794536 25.8747643,16.5658194 C23.8262235,16.552196 22.0292582,16.2501172 20.536048,15.6599534 L22.9905949,14.2983169 C23.8202467,14.6653461 24.7069349,14.852149 25.6331162,14.8587423 C26.5599881,14.8653138 27.2704957,14.7498995 27.7578455,14.5132028 C28.2362396,14.2761736 28.470701,13.9447199 28.4678303,13.5187055" id="Fill-1-Copy-23" fill="#FFA500"></path>
                <path d="M57.7861771,9.99811943 C57.7861771,15.5206723 44.8480889,19.9962389 28.8930886,19.9962389 C12.9380882,19.9962389 0,15.5207758 0,9.99811943 C0,4.47960296 12.9380882,0 28.8930886,0 C44.8480889,0 57.7861771,4.47949946 57.7861771,9.99811943" id="Shape" stroke="#FFA500" stroke-width="2.01923077"></path>
                <path d="M52.430724,25.3686161 C55.8029635,23.7353132 57.782397,21.7340748 57.782397,19.5710688 L57.7863886,9.99749845 C57.7863886,4.4830184 44.8523869,0.0115917825 28.8933,0.0115917825 C12.9342131,0.0115917825 0.000211480122,4.47090913 0.000211480122,9.99749845 L0.000211480122,19.5831781 C0.000211480122,25.0976582 12.9342131,29.5812976 28.8933,29.5812976 C38.6108627,29.5812976 47.190928,27.9236726 52.3910914,25.3807254" id="Shape" stroke="#FFA500" stroke-width="2.01923077"></path>
            </g>
            <g id="Group-41-Copy-6" transform="translate(8.558621, 25.097276)">
                <path d="M52.430724,25.3686161 C55.8029635,23.7353132 57.782397,21.7340748 57.782397,19.5710688 L57.7863886,9.99749845 C57.7863886,4.4830184 44.8523869,0.0115917825 28.8933,0.0115917825 C12.9342131,0.0115917825 0.000211480123,4.47090913 0.000211480123,9.99749845 L0.000211480123,19.5831781 C0.000211480123,25.0976582 12.9342131,29.5812976 28.8933,29.5812976 C38.6108627,29.5812976 47.190928,27.9236726 52.3910914,25.3807254" id="Shape" fill="#FFFFFF"></path>
                <path d="M55.5876011,13.9238008 L55.5876011,23.4973712" id="Shape" stroke="#FFA500" stroke-width="2.01923077"></path>
                <path d="M52.3908799,15.722597 L52.3908799,25.2961674" id="Shape" stroke="#FFA500" stroke-width="2.01923077"></path>
                <path d="M48.2123596,17.5741773 L48.2123596,27.1477477" id="Shape" stroke="#FFA500" stroke-width="2.01923077"></path>
                <path d="M42.7251145,18.8482384 L42.7251145,28.4218088" id="Shape" stroke="#FFA500" stroke-width="2.01923077"></path>
                <path d="M28.8930886,19.987752 L28.8930886,29.5693953" id="Shape" stroke="#FFA500" stroke-width="2.01923077"></path>
                <path d="M36.0118977,19.5313256 L36.0118977,29.1170053" id="Shape" stroke="#FFA500" stroke-width="2.01923077"></path>
                <path d="M2.19857595,13.9238008 L2.19857595,23.4973712" id="Shape" stroke="#FFA500" stroke-width="2.01923077"></path>
                <path d="M5.38712407,15.722597 L5.38712407,25.2961674" id="Shape" stroke="#FFA500" stroke-width="2.01923077"></path>
                <path d="M9.5738175,17.5741773 L9.5738175,27.1477477" id="Shape" stroke="#FFA500" stroke-width="2.01923077"></path>
                <path d="M15.0610626,18.8482384 L15.0610626,28.4218088" id="Shape" stroke="#FFA500" stroke-width="2.01923077"></path>
                <path d="M21.7732578,19.5313256 L21.7732578,29.1170053" id="Shape" stroke="#FFA500" stroke-width="2.01923077"></path>
                <path d="M27.9106659,5.4249636 C27.909709,5.108201 28.0915383,4.83702443 28.4499778,4.61159185 C28.8003949,4.38618107 29.2179137,4.27622451 29.7096332,4.28176071 C30.2010794,4.28729124 30.6412365,4.4067767 31.0356075,4.64020599 C31.4383512,4.87362984 31.6720807,5.14882116 31.7307275,5.46557833 C31.789555,5.78258072 31.646439,6.053523 31.2951057,6.27895558 C30.9355555,6.50436636 30.4776273,6.61420828 29.9283613,6.60867232 C29.3787478,6.60315792 28.9004246,6.48377073 28.498655,6.25034144 C28.2308086,6.09472191 28.0348123,5.81959597 27.9106659,5.4249636 Z M28.3944394,7.98596837 L31.7867173,8.01800424 L32.7678854,13.6163055 C32.9320788,14.5339802 32.3726029,15.2584175 31.0477443,15.7895796 C29.6648901,16.3206925 27.9252936,16.5794536 25.8747643,16.5658194 C23.8262235,16.552196 22.0292582,16.2501172 20.536048,15.6599534 L22.9905949,14.2983169 C23.8202467,14.6653461 24.7069349,14.852149 25.6331162,14.8587423 C26.5599881,14.8653138 27.2704957,14.7498995 27.7578455,14.5132028 C28.2362396,14.2761736 28.470701,13.9447199 28.4678303,13.5187055" id="Fill-1-Copy-23" fill="#FFA500"></path>
                <path d="M57.7861771,9.99811943 C57.7861771,15.5206723 44.8480889,19.9962389 28.8930886,19.9962389 C12.9380882,19.9962389 0,15.5207758 0,9.99811943 C0,4.47960296 12.9380882,0 28.8930886,0 C44.8480889,0 57.7861771,4.47949946 57.7861771,9.99811943" id="Shape" stroke="#FFA500" stroke-width="2.01923077"></path>
                <path d="M52.430724,25.3686161 C55.8029635,23.7353132 57.782397,21.7340748 57.782397,19.5710688 L57.7863886,9.99749845 C57.7863886,4.4830184 44.8523869,0.0115917825 28.8933,0.0115917825 C12.9342131,0.0115917825 0.000211480122,4.47090913 0.000211480122,9.99749845 L0.000211480122,19.5831781 C0.000211480122,25.0976582 12.9342131,29.5812976 28.8933,29.5812976 C38.6108627,29.5812976 47.190928,27.9236726 52.3910914,25.3807254" id="Shape" stroke="#FFA500" stroke-width="2.01923077"></path>
            </g>
            <g id="Group-41-Copy-7" transform="translate(5.789655, 13.301556)">
                <path d="M52.430724,25.3686161 C55.8029635,23.7353132 57.782397,21.7340748 57.782397,19.5710688 L57.7863886,9.99749845 C57.7863886,4.4830184 44.8523869,0.0115917825 28.8933,0.0115917825 C12.9342131,0.0115917825 0.000211480123,4.47090913 0.000211480123,9.99749845 L0.000211480123,19.5831781 C0.000211480123,25.0976582 12.9342131,29.5812976 28.8933,29.5812976 C38.6108627,29.5812976 47.190928,27.9236726 52.3910914,25.3807254" id="Shape" fill="#FFFFFF"></path>
                <path d="M55.5876011,13.9238008 L55.5876011,23.4973712" id="Shape" stroke="#FFA500" stroke-width="2.01923077"></path>
                <path d="M52.3908799,15.722597 L52.3908799,25.2961674" id="Shape" stroke="#FFA500" stroke-width="2.01923077"></path>
                <path d="M48.2123596,17.5741773 L48.2123596,27.1477477" id="Shape" stroke="#FFA500" stroke-width="2.01923077"></path>
                <path d="M42.7251145,18.8482384 L42.7251145,28.4218088" id="Shape" stroke="#FFA500" stroke-width="2.01923077"></path>
                <path d="M28.8930886,19.987752 L28.8930886,29.5693953" id="Shape" stroke="#FFA500" stroke-width="2.01923077"></path>
                <path d="M36.0118977,19.5313256 L36.0118977,29.1170053" id="Shape" stroke="#FFA500" stroke-width="2.01923077"></path>
                <path d="M2.19857595,13.9238008 L2.19857595,23.4973712" id="Shape" stroke="#FFA500" stroke-width="2.01923077"></path>
                <path d="M5.38712407,15.722597 L5.38712407,25.2961674" id="Shape" stroke="#FFA500" stroke-width="2.01923077"></path>
                <path d="M9.5738175,17.5741773 L9.5738175,27.1477477" id="Shape" stroke="#FFA500" stroke-width="2.01923077"></path>
                <path d="M15.0610626,18.8482384 L15.0610626,28.4218088" id="Shape" stroke="#FFA500" stroke-width="2.01923077"></path>
                <path d="M21.7732578,19.5313256 L21.7732578,29.1170053" id="Shape" stroke="#FFA500" stroke-width="2.01923077"></path>
                <path d="M27.9106659,5.4249636 C27.909709,5.108201 28.0915383,4.83702443 28.4499778,4.61159185 C28.8003949,4.38618107 29.2179137,4.27622451 29.7096332,4.28176071 C30.2010794,4.28729124 30.6412365,4.4067767 31.0356075,4.64020599 C31.4383512,4.87362984 31.6720807,5.14882116 31.7307275,5.46557833 C31.789555,5.78258072 31.646439,6.053523 31.2951057,6.27895558 C30.9355555,6.50436636 30.4776273,6.61420828 29.9283613,6.60867232 C29.3787478,6.60315792 28.9004246,6.48377073 28.498655,6.25034144 C28.2308086,6.09472191 28.0348123,5.81959597 27.9106659,5.4249636 Z M28.3944394,7.98596837 L31.7867173,8.01800424 L32.7678854,13.6163055 C32.9320788,14.5339802 32.3726029,15.2584175 31.0477443,15.7895796 C29.6648901,16.3206925 27.9252936,16.5794536 25.8747643,16.5658194 C23.8262235,16.552196 22.0292582,16.2501172 20.536048,15.6599534 L22.9905949,14.2983169 C23.8202467,14.6653461 24.7069349,14.852149 25.6331162,14.8587423 C26.5599881,14.8653138 27.2704957,14.7498995 27.7578455,14.5132028 C28.2362396,14.2761736 28.470701,13.9447199 28.4678303,13.5187055" id="Fill-1-Copy-23" fill="#FFA500"></path>
                <path d="M57.7861771,9.99811943 C57.7861771,15.5206723 44.8480889,19.9962389 28.8930886,19.9962389 C12.9380882,19.9962389 0,15.5207758 0,9.99811943 C0,4.47960296 12.9380882,0 28.8930886,0 C44.8480889,0 57.7861771,4.47949946 57.7861771,9.99811943" id="Shape" stroke="#FFA500" stroke-width="2.01923077"></path>
                <path d="M52.430724,25.3686161 C55.8029635,23.7353132 57.782397,21.7340748 57.782397,19.5710688 L57.7863886,9.99749845 C57.7863886,4.4830184 44.8523869,0.0115917825 28.8933,0.0115917825 C12.9342131,0.0115917825 0.000211480122,4.47090913 0.000211480122,9.99749845 L0.000211480122,19.5831781 C0.000211480122,25.0976582 12.9342131,29.5812976 28.8933,29.5812976 C38.6108627,29.5812976 47.190928,27.9236726 52.3910914,25.3807254" id="Shape" stroke="#FFA500" stroke-width="2.01923077"></path>
            </g>
            <g id="Group-41-Copy-8" transform="translate(9.565517, 0.250973)">
                <path d="M52.430724,25.3686161 C55.8029635,23.7353132 57.782397,21.7340748 57.782397,19.5710688 L57.7863886,9.99749845 C57.7863886,4.4830184 44.8523869,0.0115917825 28.8933,0.0115917825 C12.9342131,0.0115917825 0.000211480123,4.47090913 0.000211480123,9.99749845 L0.000211480123,19.5831781 C0.000211480123,25.0976582 12.9342131,29.5812976 28.8933,29.5812976 C38.6108627,29.5812976 47.190928,27.9236726 52.3910914,25.3807254" id="Shape" fill="#FFFFFF"></path>
                <path d="M55.5876011,13.9238008 L55.5876011,23.4973712" id="Shape" stroke="#FFA500" stroke-width="2.01923077"></path>
                <path d="M52.3908799,15.722597 L52.3908799,25.2961674" id="Shape" stroke="#FFA500" stroke-width="2.01923077"></path>
                <path d="M48.2123596,17.5741773 L48.2123596,27.1477477" id="Shape" stroke="#FFA500" stroke-width="2.01923077"></path>
                <path d="M42.7251145,18.8482384 L42.7251145,28.4218088" id="Shape" stroke="#FFA500" stroke-width="2.01923077"></path>
                <path d="M28.8930886,19.987752 L28.8930886,29.5693953" id="Shape" stroke="#FFA500" stroke-width="2.01923077"></path>
                <path d="M36.0118977,19.5313256 L36.0118977,29.1170053" id="Shape" stroke="#FFA500" stroke-width="2.01923077"></path>
                <path d="M2.19857595,13.9238008 L2.19857595,23.4973712" id="Shape" stroke="#FFA500" stroke-width="2.01923077"></path>
                <path d="M5.38712407,15.722597 L5.38712407,25.2961674" id="Shape" stroke="#FFA500" stroke-width="2.01923077"></path>
                <path d="M9.5738175,17.5741773 L9.5738175,27.1477477" id="Shape" stroke="#FFA500" stroke-width="2.01923077"></path>
                <path d="M15.0610626,18.8482384 L15.0610626,28.4218088" id="Shape" stroke="#FFA500" stroke-width="2.01923077"></path>
                <path d="M21.7732578,19.5313256 L21.7732578,29.1170053" id="Shape" stroke="#FFA500" stroke-width="2.01923077"></path>
                <path d="M27.9106659,5.4249636 C27.909709,5.108201 28.0915383,4.83702443 28.4499778,4.61159185 C28.8003949,4.38618107 29.2179137,4.27622451 29.7096332,4.28176071 C30.2010794,4.28729124 30.6412365,4.4067767 31.0356075,4.64020599 C31.4383512,4.87362984 31.6720807,5.14882116 31.7307275,5.46557833 C31.789555,5.78258072 31.646439,6.053523 31.2951057,6.27895558 C30.9355555,6.50436636 30.4776273,6.61420828 29.9283613,6.60867232 C29.3787478,6.60315792 28.9004246,6.48377073 28.498655,6.25034144 C28.2308086,6.09472191 28.0348123,5.81959597 27.9106659,5.4249636 Z M28.3944394,7.98596837 L31.7867173,8.01800424 L32.7678854,13.6163055 C32.9320788,14.5339802 32.3726029,15.2584175 31.0477443,15.7895796 C29.6648901,16.3206925 27.9252936,16.5794536 25.8747643,16.5658194 C23.8262235,16.552196 22.0292582,16.2501172 20.536048,15.6599534 L22.9905949,14.2983169 C23.8202467,14.6653461 24.7069349,14.852149 25.6331162,14.8587423 C26.5599881,14.8653138 27.2704957,14.7498995 27.7578455,14.5132028 C28.2362396,14.2761736 28.470701,13.9447199 28.4678303,13.5187055" id="Fill-1-Copy-23" fill="#FFA500"></path>
                <path d="M57.7861771,9.99811943 C57.7861771,15.5206723 44.8480889,19.9962389 28.8930886,19.9962389 C12.9380882,19.9962389 0,15.5207758 0,9.99811943 C0,4.47960296 12.9380882,0 28.8930886,0 C44.8480889,0 57.7861771,4.47949946 57.7861771,9.99811943" id="Shape" stroke="#FFA500" stroke-width="2.01923077"></path>
                <path d="M52.430724,25.3686161 C55.8029635,23.7353132 57.782397,21.7340748 57.782397,19.5710688 L57.7863886,9.99749845 C57.7863886,4.4830184 44.8523869,0.0115917825 28.8933,0.0115917825 C12.9342131,0.0115917825 0.000211480122,4.47090913 0.000211480122,9.99749845 L0.000211480122,19.5831781 C0.000211480122,25.0976582 12.9342131,29.5812976 28.8933,29.5812976 C38.6108627,29.5812976 47.190928,27.9236726 52.3910914,25.3807254" id="Shape" stroke="#FFA500" stroke-width="2.01923077"></path>
            </g>
        </g>
    </g>
</svg>