<?xml version="1.0" encoding="UTF-8"?>
<svg width="71px" height="167px" viewBox="0 0 71 167" version="1.1" xmlns="http://www.w3.org/2000/svg" xmlns:xlink="http://www.w3.org/1999/xlink">
    <!-- Generator: Sketch 49.3 (51167) - http://www.bohemiancoding.com/sketch -->
    <title>JayCoin_Stack_Tier1_v2</title>
    <desc>Created with Sketch.</desc>
    <defs></defs>
    <g id="JayCoin_Stack_Tier1_v2" stroke="none" stroke-width="1" fill="none" fill-rule="evenodd">
        <g id="Group-2-Copy-2" transform="translate(2.000000, 111.000000)">
            <g id="Group-41-Copy" transform="translate(10.194056, 26.234234)">
                <path d="M52.0716094,25.4979484 C55.4207514,23.8563187 57.3866272,21.8448777 57.3866272,19.6708445 L57.3905914,10.0484669 C57.3905914,4.50587337 44.5451788,0.0116508788 28.6954007,0.0116508788 C12.8456226,0.0116508788 0.000210031629,4.49370236 0.000210031629,10.0484669 L0.000210031629,19.6830155 C0.000210031629,25.2256091 12.8456226,29.7321066 28.6954007,29.7321066 C38.3464048,29.7321066 46.8677024,28.0660309 52.0322483,25.5101194" id="Shape" fill="#FFFFFF"></path>
                <path d="M55.2068642,13.994786 L55.2068642,23.6171636" id="Shape" stroke="#FFA500" stroke-width="2.01923077"></path>
                <path d="M52.0320382,15.8027527 L52.0320382,25.4251304" id="Shape" stroke="#FFA500" stroke-width="2.01923077"></path>
                <path d="M47.882138,17.6637726 L47.882138,27.2861502" id="Shape" stroke="#FFA500" stroke-width="2.01923077"></path>
                <path d="M42.4324767,18.944329 L42.4324767,28.5667066" id="Shape" stroke="#FFA500" stroke-width="2.01923077"></path>
                <path d="M28.6951907,20.089652 L28.6951907,29.7201436" id="Shape" stroke="#FFA500" stroke-width="2.01923077"></path>
                <path d="M35.7652408,19.6308987 L35.7652408,29.2654473" id="Shape" stroke="#FFA500" stroke-width="2.01923077"></path>
                <path d="M2.18351721,13.994786 L2.18351721,23.6171636" id="Shape" stroke="#FFA500" stroke-width="2.01923077"></path>
                <path d="M5.35022596,15.8027527 L5.35022596,25.4251304" id="Shape" stroke="#FFA500" stroke-width="2.01923077"></path>
                <path d="M9.50824341,17.6637726 L9.50824341,27.2861502" id="Shape" stroke="#FFA500" stroke-width="2.01923077"></path>
                <path d="M14.9579046,18.944329 L14.9579046,28.5667066" id="Shape" stroke="#FFA500" stroke-width="2.01923077"></path>
                <path d="M21.6241259,19.6308987 L21.6241259,29.2654473" id="Shape" stroke="#FFA500" stroke-width="2.01923077"></path>
                <path d="M27.7194969,5.45262073 C27.7185466,5.13424322 27.8991305,4.86168417 28.2551149,4.6351023 C28.6031319,4.40854235 29.017791,4.29802523 29.5061425,4.30358965 C29.9942227,4.30914837 30.4313651,4.42924298 30.8230349,4.66386232 C31.2230201,4.8984762 31.4551486,5.17507048 31.5133937,5.49344251 C31.5718184,5.81206102 31.4296826,6.08438459 31.0807557,6.31096646 C30.7236682,6.53752641 30.2688764,6.64792832 29.7233725,6.64236413 C29.1775235,6.63682162 28.7024765,6.51682578 28.3034588,6.28220644 C28.0374469,6.12579354 27.842793,5.84926497 27.7194969,5.45262073 Z M28.1999569,8.02668181 L31.569,8.058881 L32.5434478,13.6857231 C32.7065167,14.6080762 32.1508728,15.3362068 30.8350885,15.8700768 C29.461706,16.4038974 27.7340244,16.6639777 25.6975399,16.6502739 C23.6630302,16.6365811 21.8783728,16.3329623 20.3953901,15.7397898 L22.833125,14.3712114 C23.6570944,14.7401118 24.5377093,14.9278671 25.4575469,14.934494 C26.3780704,14.9410989 27.0837115,14.8250963 27.5677233,14.5871928 C28.0428407,14.3489552 28.2756962,14.0158117 28.2728452,13.5876255" id="Fill-1-Copy-23" fill="#FFA500"></path>
                <path d="M57.3903814,10.0490911 C57.3903814,15.5997986 44.5409102,20.0981821 28.6951907,20.0981821 C12.8494712,20.0981821 0,15.5999026 0,10.0490911 C0,4.50244052 12.8494712,0 28.6951907,0 C44.5409102,0 57.3903814,4.5023365 57.3903814,10.0490911" id="Shape" stroke="#FFA500" stroke-width="2.01923077"></path>
                <path d="M52.0716094,25.4979484 C55.4207514,23.8563187 57.3866272,21.8448777 57.3866272,19.6708445 L57.3905914,10.0484669 C57.3905914,4.50587337 44.5451788,0.0116508789 28.6954007,0.0116508789 C12.8456226,0.0116508789 0.000210031628,4.49370236 0.000210031628,10.0484669 L0.000210031628,19.6830155 C0.000210031628,25.2256091 12.8456226,29.7321066 28.6954007,29.7321066 C38.3464048,29.7321066 46.8677024,28.0660309 52.0322483,25.5101194" id="Shape" stroke="#FFA500" stroke-width="2.01923077"></path>
            </g>
            <g id="Group-41-Copy-2" transform="translate(0.032343, 12.108108)">
                <path d="M52.0716094,25.4979484 C55.4207514,23.8563187 57.3866272,21.8448777 57.3866272,19.6708445 L57.3905914,10.0484669 C57.3905914,4.50587337 44.5451788,0.0116508788 28.6954007,0.0116508788 C12.8456226,0.0116508788 0.000210031629,4.49370236 0.000210031629,10.0484669 L0.000210031629,19.6830155 C0.000210031629,25.2256091 12.8456226,29.7321066 28.6954007,29.7321066 C38.3464048,29.7321066 46.8677024,28.0660309 52.0322483,25.5101194" id="Shape" fill="#FFFFFF"></path>
                <path d="M55.2068642,13.994786 L55.2068642,23.6171636" id="Shape" stroke="#FFA500" stroke-width="2.01923077"></path>
                <path d="M52.0320382,15.8027527 L52.0320382,25.4251304" id="Shape" stroke="#FFA500" stroke-width="2.01923077"></path>
                <path d="M47.882138,17.6637726 L47.882138,27.2861502" id="Shape" stroke="#FFA500" stroke-width="2.01923077"></path>
                <path d="M42.4324767,18.944329 L42.4324767,28.5667066" id="Shape" stroke="#FFA500" stroke-width="2.01923077"></path>
                <path d="M28.6951907,20.089652 L28.6951907,29.7201436" id="Shape" stroke="#FFA500" stroke-width="2.01923077"></path>
                <path d="M35.7652408,19.6308987 L35.7652408,29.2654473" id="Shape" stroke="#FFA500" stroke-width="2.01923077"></path>
                <path d="M2.18351721,13.994786 L2.18351721,23.6171636" id="Shape" stroke="#FFA500" stroke-width="2.01923077"></path>
                <path d="M5.35022596,15.8027527 L5.35022596,25.4251304" id="Shape" stroke="#FFA500" stroke-width="2.01923077"></path>
                <path d="M9.50824341,17.6637726 L9.50824341,27.2861502" id="Shape" stroke="#FFA500" stroke-width="2.01923077"></path>
                <path d="M14.9579046,18.944329 L14.9579046,28.5667066" id="Shape" stroke="#FFA500" stroke-width="2.01923077"></path>
                <path d="M21.6241259,19.6308987 L21.6241259,29.2654473" id="Shape" stroke="#FFA500" stroke-width="2.01923077"></path>
                <path d="M27.7194969,5.45262073 C27.7185466,5.13424322 27.8991305,4.86168417 28.2551149,4.6351023 C28.6031319,4.40854235 29.017791,4.29802523 29.5061425,4.30358965 C29.9942227,4.30914837 30.4313651,4.42924298 30.8230349,4.66386232 C31.2230201,4.8984762 31.4551486,5.17507048 31.5133937,5.49344251 C31.5718184,5.81206102 31.4296826,6.08438459 31.0807557,6.31096646 C30.7236682,6.53752641 30.2688764,6.64792832 29.7233725,6.64236413 C29.1775235,6.63682162 28.7024765,6.51682578 28.3034588,6.28220644 C28.0374469,6.12579354 27.842793,5.84926497 27.7194969,5.45262073 Z M28.1999569,8.02668181 L31.569,8.058881 L32.5434478,13.6857231 C32.7065167,14.6080762 32.1508728,15.3362068 30.8350885,15.8700768 C29.461706,16.4038974 27.7340244,16.6639777 25.6975399,16.6502739 C23.6630302,16.6365811 21.8783728,16.3329623 20.3953901,15.7397898 L22.833125,14.3712114 C23.6570944,14.7401118 24.5377093,14.9278671 25.4575469,14.934494 C26.3780704,14.9410989 27.0837115,14.8250963 27.5677233,14.5871928 C28.0428407,14.3489552 28.2756962,14.0158117 28.2728452,13.5876255" id="Fill-1-Copy-23" fill="#3A3A3A"></path>
                <path d="M57.3903814,10.0490911 C57.3903814,15.5997986 44.5409102,20.0981821 28.6951907,20.0981821 C12.8494712,20.0981821 0,15.5999026 0,10.0490911 C0,4.50244052 12.8494712,0 28.6951907,0 C44.5409102,0 57.3903814,4.5023365 57.3903814,10.0490911" id="Shape" stroke="#FFA500" stroke-width="2.01923077"></path>
                <path d="M52.0716094,25.4979484 C55.4207514,23.8563187 57.3866272,21.8448777 57.3866272,19.6708445 L57.3905914,10.0484669 C57.3905914,4.50587337 44.5451788,0.0116508789 28.6954007,0.0116508789 C12.8456226,0.0116508789 0.000210031628,4.49370236 0.000210031628,10.0484669 L0.000210031628,19.6830155 C0.000210031628,25.2256091 12.8456226,29.7321066 28.6954007,29.7321066 C38.3464048,29.7321066 46.8677024,28.0660309 52.0322483,25.5101194" id="Shape" stroke="#FFA500" stroke-width="2.01923077"></path>
            </g>
            <g id="Group-41-Copy-3" transform="translate(6.129371, 0.000000)">
                <path d="M52.0716094,25.4979484 C55.4207514,23.8563187 57.3866272,21.8448777 57.3866272,19.6708445 L57.3905914,10.0484669 C57.3905914,4.50587337 44.5451788,0.0116508788 28.6954007,0.0116508788 C12.8456226,0.0116508788 0.000210031629,4.49370236 0.000210031629,10.0484669 L0.000210031629,19.6830155 C0.000210031629,25.2256091 12.8456226,29.7321066 28.6954007,29.7321066 C38.3464048,29.7321066 46.8677024,28.0660309 52.0322483,25.5101194" id="Shape" fill="#FFFFFF"></path>
                <path d="M55.2068642,13.994786 L55.2068642,23.6171636" id="Shape" stroke="#FFA500" stroke-width="2.01923077"></path>
                <path d="M52.0320382,15.8027527 L52.0320382,25.4251304" id="Shape" stroke="#FFA500" stroke-width="2.01923077"></path>
                <path d="M47.882138,17.6637726 L47.882138,27.2861502" id="Shape" stroke="#FFA500" stroke-width="2.01923077"></path>
                <path d="M42.4324767,18.944329 L42.4324767,28.5667066" id="Shape" stroke="#FFA500" stroke-width="2.01923077"></path>
                <path d="M28.6951907,20.089652 L28.6951907,29.7201436" id="Shape" stroke="#FFA500" stroke-width="2.01923077"></path>
                <path d="M35.7652408,19.6308987 L35.7652408,29.2654473" id="Shape" stroke="#FFA500" stroke-width="2.01923077"></path>
                <path d="M2.18351721,13.994786 L2.18351721,23.6171636" id="Shape" stroke="#FFA500" stroke-width="2.01923077"></path>
                <path d="M5.35022596,15.8027527 L5.35022596,25.4251304" id="Shape" stroke="#FFA500" stroke-width="2.01923077"></path>
                <path d="M9.50824341,17.6637726 L9.50824341,27.2861502" id="Shape" stroke="#FFA500" stroke-width="2.01923077"></path>
                <path d="M14.9579046,18.944329 L14.9579046,28.5667066" id="Shape" stroke="#FFA500" stroke-width="2.01923077"></path>
                <path d="M21.6241259,19.6308987 L21.6241259,29.2654473" id="Shape" stroke="#FFA500" stroke-width="2.01923077"></path>
                <path d="M27.7194969,5.45262073 C27.7185466,5.13424322 27.8991305,4.86168417 28.2551149,4.6351023 C28.6031319,4.40854235 29.017791,4.29802523 29.5061425,4.30358965 C29.9942227,4.30914837 30.4313651,4.42924298 30.8230349,4.66386232 C31.2230201,4.8984762 31.4551486,5.17507048 31.5133937,5.49344251 C31.5718184,5.81206102 31.4296826,6.08438459 31.0807557,6.31096646 C30.7236682,6.53752641 30.2688764,6.64792832 29.7233725,6.64236413 C29.1775235,6.63682162 28.7024765,6.51682578 28.3034588,6.28220644 C28.0374469,6.12579354 27.842793,5.84926497 27.7194969,5.45262073 Z M28.1999569,8.02668181 L31.569,8.058881 L32.5434478,13.6857231 C32.7065167,14.6080762 32.1508728,15.3362068 30.8350885,15.8700768 C29.461706,16.4038974 27.7340244,16.6639777 25.6975399,16.6502739 C23.6630302,16.6365811 21.8783728,16.3329623 20.3953901,15.7397898 L22.833125,14.3712114 C23.6570944,14.7401118 24.5377093,14.9278671 25.4575469,14.934494 C26.3780704,14.9410989 27.0837115,14.8250963 27.5677233,14.5871928 C28.0428407,14.3489552 28.2756962,14.0158117 28.2728452,13.5876255" id="Fill-1-Copy-23" fill="#FFA500"></path>
                <path d="M57.3903814,10.0490911 C57.3903814,15.5997986 44.5409102,20.0981821 28.6951907,20.0981821 C12.8494712,20.0981821 0,15.5999026 0,10.0490911 C0,4.50244052 12.8494712,0 28.6951907,0 C44.5409102,0 57.3903814,4.5023365 57.3903814,10.0490911" id="Shape" stroke="#FFA500" stroke-width="2.01923077"></path>
                <path d="M52.0716094,25.4979484 C55.4207514,23.8563187 57.3866272,21.8448777 57.3866272,19.6708445 L57.3905914,10.0484669 C57.3905914,4.50587337 44.5451788,0.0116508789 28.6954007,0.0116508789 C12.8456226,0.0116508789 0.000210031628,4.49370236 0.000210031628,10.0484669 L0.000210031628,19.6830155 C0.000210031628,25.2256091 12.8456226,29.7321066 28.6954007,29.7321066 C38.3464048,29.7321066 46.8677024,28.0660309 52.0322483,25.5101194" id="Shape" stroke="#FFA500" stroke-width="2.01923077"></path>
            </g>
        </g>
    </g>
</svg>