<?xml version="1.0" encoding="UTF-8"?>
<svg width="75px" height="167px" viewBox="0 0 75 167" version="1.1" xmlns="http://www.w3.org/2000/svg" xmlns:xlink="http://www.w3.org/1999/xlink">
    <!-- Generator: Sketch 49.3 (51167) - http://www.bohemiancoding.com/sketch -->
    <title>JayCoin_Stack_Tier2_v2</title>
    <desc>Created with Sketch.</desc>
    <defs></defs>
    <g id="JayCoin_Stack_Tier2_v2" stroke="none" stroke-width="1" fill="none" fill-rule="evenodd">
        <g id="Group-2-Copy" transform="translate(2.000000, 74.000000)">
            <g id="Group-41-Copy" transform="translate(10.264360, 62.500000)">
                <path d="M52.430724,25.2702881 C55.8029635,23.6433159 57.782397,21.6498342 57.782397,19.495212 L57.7863886,9.95874845 C57.7863886,4.46564236 44.8523869,0.0115468531 28.8933,0.0115468531 C12.9342131,0.0115468531 0.000211480123,4.45358002 0.000211480123,9.95874845 L0.000211480123,19.5072743 C0.000211480123,25.0003804 12.9342131,29.4666414 28.8933,29.4666414 C38.6108627,29.4666414 47.190928,27.8154414 52.3910914,25.2823504" id="Shape" fill="#FFFFFF"></path>
                <path d="M55.5876011,13.8698326 L55.5876011,23.4062961" id="Shape" stroke="#FFA500" stroke-width="2.01923077"></path>
                <path d="M52.3908799,15.6616567 L52.3908799,25.1981203" id="Shape" stroke="#FFA500" stroke-width="2.01923077"></path>
                <path d="M48.2123596,17.5060603 L48.2123596,27.0425239" id="Shape" stroke="#FFA500" stroke-width="2.01923077"></path>
                <path d="M42.7251145,18.7751832 L42.7251145,28.3116468" id="Shape" stroke="#FFA500" stroke-width="2.01923077"></path>
                <path d="M28.8930886,19.9102801 L28.8930886,29.4547852" id="Shape" stroke="#FFA500" stroke-width="2.01923077"></path>
                <path d="M36.0118977,19.4556228 L36.0118977,29.0041487" id="Shape" stroke="#FFA500" stroke-width="2.01923077"></path>
                <path d="M2.19857595,13.8698326 L2.19857595,23.4062961" id="Shape" stroke="#FFA500" stroke-width="2.01923077"></path>
                <path d="M5.38712407,15.6616567 L5.38712407,25.1981203" id="Shape" stroke="#FFA500" stroke-width="2.01923077"></path>
                <path d="M9.5738175,17.5060603 L9.5738175,27.0425239" id="Shape" stroke="#FFA500" stroke-width="2.01923077"></path>
                <path d="M15.0610626,18.7751832 L15.0610626,28.3116468" id="Shape" stroke="#FFA500" stroke-width="2.01923077"></path>
                <path d="M21.7732578,19.4556228 L21.7732578,29.0041487" id="Shape" stroke="#FFA500" stroke-width="2.01923077"></path>
                <path d="M27.9106659,5.40393661 C27.909709,5.08840177 28.0915383,4.81827627 28.4499778,4.59371746 C28.8003949,4.36918037 29.2179137,4.25965 29.7096332,4.26516474 C30.2010794,4.27067383 30.6412365,4.38969617 31.0356075,4.6222207 C31.4383512,4.8547398 31.6720807,5.12886449 31.7307275,5.44439392 C31.789555,5.76016762 31.646439,6.03005973 31.2951057,6.25461855 C30.9355555,6.47915564 30.4776273,6.58857182 29.9283613,6.58305731 C29.3787478,6.57756429 28.9004246,6.45863983 28.498655,6.22611531 C28.2308086,6.07109896 28.0348123,5.79703939 27.9106659,5.40393661 Z M28.3944394,7.955015 L31.7867173,7.9869267 L32.7678854,13.5635291 C32.9320788,14.4776469 32.3726029,15.1992764 31.0477443,15.7283797 C29.6648901,16.257434 27.9252936,16.5151922 25.8747643,16.5016108 C23.8262235,16.4880402 22.0292582,16.1871323 20.536048,15.5992559 L22.9905949,14.242897 C23.8202467,14.6085037 24.7069349,14.7945826 25.6331162,14.8011503 C26.5599881,14.8076963 27.2704957,14.6927294 27.7578455,14.45695 C28.2362396,14.2208396 28.470701,13.8906706 28.4678303,13.4663074" id="Fill-1-Copy-23" fill="#FFA500"></path>
                <path d="M57.7861771,9.95936703 C57.7861771,15.4605147 44.8480889,19.9187341 28.8930886,19.9187341 C12.9380882,19.9187341 0,15.4606178 0,9.95936703 C0,4.46224016 12.9380882,0 28.8930886,0 C44.8480889,0 57.7861771,4.46213706 57.7861771,9.95936703" id="Shape" stroke="#FFA500" stroke-width="2.01923077"></path>
                <path d="M52.430724,25.2702881 C55.8029635,23.6433159 57.782397,21.6498342 57.782397,19.495212 L57.7863886,9.95874845 C57.7863886,4.46564236 44.8523869,0.0115468531 28.8933,0.0115468531 C12.9342131,0.0115468531 0.000211480122,4.45358002 0.000211480122,9.95874845 L0.000211480122,19.5072743 C0.000211480122,25.0003804 12.9342131,29.4666414 28.8933,29.4666414 C38.6108627,29.4666414 47.190928,27.8154414 52.3910914,25.2823504" id="Shape" stroke="#FFA500" stroke-width="2.01923077"></path>
            </g>
            <g id="Group-41-Copy-2" transform="translate(0.032566, 48.500000)">
                <path d="M52.430724,25.2702881 C55.8029635,23.6433159 57.782397,21.6498342 57.782397,19.495212 L57.7863886,9.95874845 C57.7863886,4.46564236 44.8523869,0.0115468531 28.8933,0.0115468531 C12.9342131,0.0115468531 0.000211480123,4.45358002 0.000211480123,9.95874845 L0.000211480123,19.5072743 C0.000211480123,25.0003804 12.9342131,29.4666414 28.8933,29.4666414 C38.6108627,29.4666414 47.190928,27.8154414 52.3910914,25.2823504" id="Shape" fill="#FFFFFF"></path>
                <path d="M55.5876011,13.8698326 L55.5876011,23.4062961" id="Shape" stroke="#FFA500" stroke-width="2.01923077"></path>
                <path d="M52.3908799,15.6616567 L52.3908799,25.1981203" id="Shape" stroke="#FFA500" stroke-width="2.01923077"></path>
                <path d="M48.2123596,17.5060603 L48.2123596,27.0425239" id="Shape" stroke="#FFA500" stroke-width="2.01923077"></path>
                <path d="M42.7251145,18.7751832 L42.7251145,28.3116468" id="Shape" stroke="#FFA500" stroke-width="2.01923077"></path>
                <path d="M28.8930886,19.9102801 L28.8930886,29.4547852" id="Shape" stroke="#FFA500" stroke-width="2.01923077"></path>
                <path d="M36.0118977,19.4556228 L36.0118977,29.0041487" id="Shape" stroke="#FFA500" stroke-width="2.01923077"></path>
                <path d="M2.19857595,13.8698326 L2.19857595,23.4062961" id="Shape" stroke="#FFA500" stroke-width="2.01923077"></path>
                <path d="M5.38712407,15.6616567 L5.38712407,25.1981203" id="Shape" stroke="#FFA500" stroke-width="2.01923077"></path>
                <path d="M9.5738175,17.5060603 L9.5738175,27.0425239" id="Shape" stroke="#FFA500" stroke-width="2.01923077"></path>
                <path d="M15.0610626,18.7751832 L15.0610626,28.3116468" id="Shape" stroke="#FFA500" stroke-width="2.01923077"></path>
                <path d="M21.7732578,19.4556228 L21.7732578,29.0041487" id="Shape" stroke="#FFA500" stroke-width="2.01923077"></path>
                <path d="M27.9106659,5.40393661 C27.909709,5.08840177 28.0915383,4.81827627 28.4499778,4.59371746 C28.8003949,4.36918037 29.2179137,4.25965 29.7096332,4.26516474 C30.2010794,4.27067383 30.6412365,4.38969617 31.0356075,4.6222207 C31.4383512,4.8547398 31.6720807,5.12886449 31.7307275,5.44439392 C31.789555,5.76016762 31.646439,6.03005973 31.2951057,6.25461855 C30.9355555,6.47915564 30.4776273,6.58857182 29.9283613,6.58305731 C29.3787478,6.57756429 28.9004246,6.45863983 28.498655,6.22611531 C28.2308086,6.07109896 28.0348123,5.79703939 27.9106659,5.40393661 Z M28.3944394,7.955015 L31.7867173,7.9869267 L32.7678854,13.5635291 C32.9320788,14.4776469 32.3726029,15.1992764 31.0477443,15.7283797 C29.6648901,16.257434 27.9252936,16.5151922 25.8747643,16.5016108 C23.8262235,16.4880402 22.0292582,16.1871323 20.536048,15.5992559 L22.9905949,14.242897 C23.8202467,14.6085037 24.7069349,14.7945826 25.6331162,14.8011503 C26.5599881,14.8076963 27.2704957,14.6927294 27.7578455,14.45695 C28.2362396,14.2208396 28.470701,13.8906706 28.4678303,13.4663074" id="Fill-1-Copy-23" fill="#3A3A3A"></path>
                <path d="M57.7861771,9.95936703 C57.7861771,15.4605147 44.8480889,19.9187341 28.8930886,19.9187341 C12.9380882,19.9187341 0,15.4606178 0,9.95936703 C0,4.46224016 12.9380882,0 28.8930886,0 C44.8480889,0 57.7861771,4.46213706 57.7861771,9.95936703" id="Shape" stroke="#FFA500" stroke-width="2.01923077"></path>
                <path d="M52.430724,25.2702881 C55.8029635,23.6433159 57.782397,21.6498342 57.782397,19.495212 L57.7863886,9.95874845 C57.7863886,4.46564236 44.8523869,0.0115468531 28.8933,0.0115468531 C12.9342131,0.0115468531 0.000211480122,4.45358002 0.000211480122,9.95874845 L0.000211480122,19.5072743 C0.000211480122,25.0003804 12.9342131,29.4666414 28.8933,29.4666414 C38.6108627,29.4666414 47.190928,27.8154414 52.3910914,25.2823504" id="Shape" stroke="#FFA500" stroke-width="2.01923077"></path>
            </g>
            <g id="Group-41-Copy-3" transform="translate(6.171642, 36.500000)">
                <path d="M52.430724,25.2702881 C55.8029635,23.6433159 57.782397,21.6498342 57.782397,19.495212 L57.7863886,9.95874845 C57.7863886,4.46564236 44.8523869,0.0115468531 28.8933,0.0115468531 C12.9342131,0.0115468531 0.000211480123,4.45358002 0.000211480123,9.95874845 L0.000211480123,19.5072743 C0.000211480123,25.0003804 12.9342131,29.4666414 28.8933,29.4666414 C38.6108627,29.4666414 47.190928,27.8154414 52.3910914,25.2823504" id="Shape" fill="#FFFFFF"></path>
                <path d="M55.5876011,13.8698326 L55.5876011,23.4062961" id="Shape" stroke="#FFA500" stroke-width="2.01923077"></path>
                <path d="M52.3908799,15.6616567 L52.3908799,25.1981203" id="Shape" stroke="#FFA500" stroke-width="2.01923077"></path>
                <path d="M48.2123596,17.5060603 L48.2123596,27.0425239" id="Shape" stroke="#FFA500" stroke-width="2.01923077"></path>
                <path d="M42.7251145,18.7751832 L42.7251145,28.3116468" id="Shape" stroke="#FFA500" stroke-width="2.01923077"></path>
                <path d="M28.8930886,19.9102801 L28.8930886,29.4547852" id="Shape" stroke="#FFA500" stroke-width="2.01923077"></path>
                <path d="M36.0118977,19.4556228 L36.0118977,29.0041487" id="Shape" stroke="#FFA500" stroke-width="2.01923077"></path>
                <path d="M2.19857595,13.8698326 L2.19857595,23.4062961" id="Shape" stroke="#FFA500" stroke-width="2.01923077"></path>
                <path d="M5.38712407,15.6616567 L5.38712407,25.1981203" id="Shape" stroke="#FFA500" stroke-width="2.01923077"></path>
                <path d="M9.5738175,17.5060603 L9.5738175,27.0425239" id="Shape" stroke="#FFA500" stroke-width="2.01923077"></path>
                <path d="M15.0610626,18.7751832 L15.0610626,28.3116468" id="Shape" stroke="#FFA500" stroke-width="2.01923077"></path>
                <path d="M21.7732578,19.4556228 L21.7732578,29.0041487" id="Shape" stroke="#FFA500" stroke-width="2.01923077"></path>
                <path d="M27.9106659,5.40393661 C27.909709,5.08840177 28.0915383,4.81827627 28.4499778,4.59371746 C28.8003949,4.36918037 29.2179137,4.25965 29.7096332,4.26516474 C30.2010794,4.27067383 30.6412365,4.38969617 31.0356075,4.6222207 C31.4383512,4.8547398 31.6720807,5.12886449 31.7307275,5.44439392 C31.789555,5.76016762 31.646439,6.03005973 31.2951057,6.25461855 C30.9355555,6.47915564 30.4776273,6.58857182 29.9283613,6.58305731 C29.3787478,6.57756429 28.9004246,6.45863983 28.498655,6.22611531 C28.2308086,6.07109896 28.0348123,5.79703939 27.9106659,5.40393661 Z M28.3944394,7.955015 L31.7867173,7.9869267 L32.7678854,13.5635291 C32.9320788,14.4776469 32.3726029,15.1992764 31.0477443,15.7283797 C29.6648901,16.257434 27.9252936,16.5151922 25.8747643,16.5016108 C23.8262235,16.4880402 22.0292582,16.1871323 20.536048,15.5992559 L22.9905949,14.242897 C23.8202467,14.6085037 24.7069349,14.7945826 25.6331162,14.8011503 C26.5599881,14.8076963 27.2704957,14.6927294 27.7578455,14.45695 C28.2362396,14.2208396 28.470701,13.8906706 28.4678303,13.4663074" id="Fill-1-Copy-23" fill="#3A3A3A"></path>
                <path d="M57.7861771,9.95936703 C57.7861771,15.4605147 44.8480889,19.9187341 28.8930886,19.9187341 C12.9380882,19.9187341 0,15.4606178 0,9.95936703 C0,4.46224016 12.9380882,0 28.8930886,0 C44.8480889,0 57.7861771,4.46213706 57.7861771,9.95936703" id="Shape" stroke="#FFA500" stroke-width="2.01923077"></path>
                <path d="M52.430724,25.2702881 C55.8029635,23.6433159 57.782397,21.6498342 57.782397,19.495212 L57.7863886,9.95874845 C57.7863886,4.46564236 44.8523869,0.0115468531 28.8933,0.0115468531 C12.9342131,0.0115468531 0.000211480122,4.45358002 0.000211480122,9.95874845 L0.000211480122,19.5072743 C0.000211480122,25.0003804 12.9342131,29.4666414 28.8933,29.4666414 C38.6108627,29.4666414 47.190928,27.8154414 52.3910914,25.2823504" id="Shape" stroke="#FFA500" stroke-width="2.01923077"></path>
            </g>
            <g id="Group-41-Copy-3" transform="translate(12.310719, 24.500000)">
                <path d="M52.430724,25.2702881 C55.8029635,23.6433159 57.782397,21.6498342 57.782397,19.495212 L57.7863886,9.95874845 C57.7863886,4.46564236 44.8523869,0.0115468531 28.8933,0.0115468531 C12.9342131,0.0115468531 0.000211480123,4.45358002 0.000211480123,9.95874845 L0.000211480123,19.5072743 C0.000211480123,25.0003804 12.9342131,29.4666414 28.8933,29.4666414 C38.6108627,29.4666414 47.190928,27.8154414 52.3910914,25.2823504" id="Shape" fill="#FFFFFF"></path>
                <path d="M55.5876011,13.8698326 L55.5876011,23.4062961" id="Shape" stroke="#FFA500" stroke-width="2.01923077"></path>
                <path d="M52.3908799,15.6616567 L52.3908799,25.1981203" id="Shape" stroke="#FFA500" stroke-width="2.01923077"></path>
                <path d="M48.2123596,17.5060603 L48.2123596,27.0425239" id="Shape" stroke="#FFA500" stroke-width="2.01923077"></path>
                <path d="M42.7251145,18.7751832 L42.7251145,28.3116468" id="Shape" stroke="#FFA500" stroke-width="2.01923077"></path>
                <path d="M28.8930886,19.9102801 L28.8930886,29.4547852" id="Shape" stroke="#FFA500" stroke-width="2.01923077"></path>
                <path d="M36.0118977,19.4556228 L36.0118977,29.0041487" id="Shape" stroke="#FFA500" stroke-width="2.01923077"></path>
                <path d="M2.19857595,13.8698326 L2.19857595,23.4062961" id="Shape" stroke="#FFA500" stroke-width="2.01923077"></path>
                <path d="M5.38712407,15.6616567 L5.38712407,25.1981203" id="Shape" stroke="#FFA500" stroke-width="2.01923077"></path>
                <path d="M9.5738175,17.5060603 L9.5738175,27.0425239" id="Shape" stroke="#FFA500" stroke-width="2.01923077"></path>
                <path d="M15.0610626,18.7751832 L15.0610626,28.3116468" id="Shape" stroke="#FFA500" stroke-width="2.01923077"></path>
                <path d="M21.7732578,19.4556228 L21.7732578,29.0041487" id="Shape" stroke="#FFA500" stroke-width="2.01923077"></path>
                <path d="M27.9106659,5.40393661 C27.909709,5.08840177 28.0915383,4.81827627 28.4499778,4.59371746 C28.8003949,4.36918037 29.2179137,4.25965 29.7096332,4.26516474 C30.2010794,4.27067383 30.6412365,4.38969617 31.0356075,4.6222207 C31.4383512,4.8547398 31.6720807,5.12886449 31.7307275,5.44439392 C31.789555,5.76016762 31.646439,6.03005973 31.2951057,6.25461855 C30.9355555,6.47915564 30.4776273,6.58857182 29.9283613,6.58305731 C29.3787478,6.57756429 28.9004246,6.45863983 28.498655,6.22611531 C28.2308086,6.07109896 28.0348123,5.79703939 27.9106659,5.40393661 Z M28.3944394,7.955015 L31.7867173,7.9869267 L32.7678854,13.5635291 C32.9320788,14.4776469 32.3726029,15.1992764 31.0477443,15.7283797 C29.6648901,16.257434 27.9252936,16.5151922 25.8747643,16.5016108 C23.8262235,16.4880402 22.0292582,16.1871323 20.536048,15.5992559 L22.9905949,14.242897 C23.8202467,14.6085037 24.7069349,14.7945826 25.6331162,14.8011503 C26.5599881,14.8076963 27.2704957,14.6927294 27.7578455,14.45695 C28.2362396,14.2208396 28.470701,13.8906706 28.4678303,13.4663074" id="Fill-1-Copy-23" fill="#FFA500"></path>
                <path d="M57.7861771,9.95936703 C57.7861771,15.4605147 44.8480889,19.9187341 28.8930886,19.9187341 C12.9380882,19.9187341 0,15.4606178 0,9.95936703 C0,4.46224016 12.9380882,0 28.8930886,0 C44.8480889,0 57.7861771,4.46213706 57.7861771,9.95936703" id="Shape" stroke="#FFA500" stroke-width="2.01923077"></path>
                <path d="M52.430724,25.2702881 C55.8029635,23.6433159 57.782397,21.6498342 57.782397,19.495212 L57.7863886,9.95874845 C57.7863886,4.46564236 44.8523869,0.0115468531 28.8933,0.0115468531 C12.9342131,0.0115468531 0.000211480122,4.45358002 0.000211480122,9.95874845 L0.000211480122,19.5072743 C0.000211480122,25.0003804 12.9342131,29.4666414 28.8933,29.4666414 C38.6108627,29.4666414 47.190928,27.8154414 52.3910914,25.2823504" id="Shape" stroke="#FFA500" stroke-width="2.01923077"></path>
            </g>
            <g id="Group-41-Copy-4" transform="translate(6.041379, 11.500000)">
                <path d="M52.430724,25.2702881 C55.8029635,23.6433159 57.782397,21.6498342 57.782397,19.495212 L57.7863886,9.95874845 C57.7863886,4.46564236 44.8523869,0.0115468531 28.8933,0.0115468531 C12.9342131,0.0115468531 0.000211480123,4.45358002 0.000211480123,9.95874845 L0.000211480123,19.5072743 C0.000211480123,25.0003804 12.9342131,29.4666414 28.8933,29.4666414 C38.6108627,29.4666414 47.190928,27.8154414 52.3910914,25.2823504" id="Shape" fill="#FFFFFF"></path>
                <path d="M55.5876011,13.8698326 L55.5876011,23.4062961" id="Shape" stroke="#FFA500" stroke-width="2.01923077"></path>
                <path d="M52.3908799,15.6616567 L52.3908799,25.1981203" id="Shape" stroke="#FFA500" stroke-width="2.01923077"></path>
                <path d="M48.2123596,17.5060603 L48.2123596,27.0425239" id="Shape" stroke="#FFA500" stroke-width="2.01923077"></path>
                <path d="M42.7251145,18.7751832 L42.7251145,28.3116468" id="Shape" stroke="#FFA500" stroke-width="2.01923077"></path>
                <path d="M28.8930886,19.9102801 L28.8930886,29.4547852" id="Shape" stroke="#FFA500" stroke-width="2.01923077"></path>
                <path d="M36.0118977,19.4556228 L36.0118977,29.0041487" id="Shape" stroke="#FFA500" stroke-width="2.01923077"></path>
                <path d="M2.19857595,13.8698326 L2.19857595,23.4062961" id="Shape" stroke="#FFA500" stroke-width="2.01923077"></path>
                <path d="M5.38712407,15.6616567 L5.38712407,25.1981203" id="Shape" stroke="#FFA500" stroke-width="2.01923077"></path>
                <path d="M9.5738175,17.5060603 L9.5738175,27.0425239" id="Shape" stroke="#FFA500" stroke-width="2.01923077"></path>
                <path d="M15.0610626,18.7751832 L15.0610626,28.3116468" id="Shape" stroke="#FFA500" stroke-width="2.01923077"></path>
                <path d="M21.7732578,19.4556228 L21.7732578,29.0041487" id="Shape" stroke="#FFA500" stroke-width="2.01923077"></path>
                <path d="M27.9106659,5.40393661 C27.909709,5.08840177 28.0915383,4.81827627 28.4499778,4.59371746 C28.8003949,4.36918037 29.2179137,4.25965 29.7096332,4.26516474 C30.2010794,4.27067383 30.6412365,4.38969617 31.0356075,4.6222207 C31.4383512,4.8547398 31.6720807,5.12886449 31.7307275,5.44439392 C31.789555,5.76016762 31.646439,6.03005973 31.2951057,6.25461855 C30.9355555,6.47915564 30.4776273,6.58857182 29.9283613,6.58305731 C29.3787478,6.57756429 28.9004246,6.45863983 28.498655,6.22611531 C28.2308086,6.07109896 28.0348123,5.79703939 27.9106659,5.40393661 Z M28.3944394,7.955015 L31.7867173,7.9869267 L32.7678854,13.5635291 C32.9320788,14.4776469 32.3726029,15.1992764 31.0477443,15.7283797 C29.6648901,16.257434 27.9252936,16.5151922 25.8747643,16.5016108 C23.8262235,16.4880402 22.0292582,16.1871323 20.536048,15.5992559 L22.9905949,14.242897 C23.8202467,14.6085037 24.7069349,14.7945826 25.6331162,14.8011503 C26.5599881,14.8076963 27.2704957,14.6927294 27.7578455,14.45695 C28.2362396,14.2208396 28.470701,13.8906706 28.4678303,13.4663074" id="Fill-1-Copy-23" fill="#FFA500"></path>
                <path d="M57.7861771,9.95936703 C57.7861771,15.4605147 44.8480889,19.9187341 28.8930886,19.9187341 C12.9380882,19.9187341 0,15.4606178 0,9.95936703 C0,4.46224016 12.9380882,0 28.8930886,0 C44.8480889,0 57.7861771,4.46213706 57.7861771,9.95936703" id="Shape" stroke="#FFA500" stroke-width="2.01923077"></path>
                <path d="M52.430724,25.2702881 C55.8029635,23.6433159 57.782397,21.6498342 57.782397,19.495212 L57.7863886,9.95874845 C57.7863886,4.46564236 44.8523869,0.0115468531 28.8933,0.0115468531 C12.9342131,0.0115468531 0.000211480122,4.45358002 0.000211480122,9.95874845 L0.000211480122,19.5072743 C0.000211480122,25.0003804 12.9342131,29.4666414 28.8933,29.4666414 C38.6108627,29.4666414 47.190928,27.8154414 52.3910914,25.2823504" id="Shape" stroke="#FFA500" stroke-width="2.01923077"></path>
            </g>
            <g id="Group-41-Copy-5" transform="translate(14.851724, 0.000000)">
                <path d="M52.430724,25.2702881 C55.8029635,23.6433159 57.782397,21.6498342 57.782397,19.495212 L57.7863886,9.95874845 C57.7863886,4.46564236 44.8523869,0.0115468531 28.8933,0.0115468531 C12.9342131,0.0115468531 0.000211480123,4.45358002 0.000211480123,9.95874845 L0.000211480123,19.5072743 C0.000211480123,25.0003804 12.9342131,29.4666414 28.8933,29.4666414 C38.6108627,29.4666414 47.190928,27.8154414 52.3910914,25.2823504" id="Shape" fill="#FFFFFF"></path>
                <path d="M55.5876011,13.8698326 L55.5876011,23.4062961" id="Shape" stroke="#FFA500" stroke-width="2.01923077"></path>
                <path d="M52.3908799,15.6616567 L52.3908799,25.1981203" id="Shape" stroke="#FFA500" stroke-width="2.01923077"></path>
                <path d="M48.2123596,17.5060603 L48.2123596,27.0425239" id="Shape" stroke="#FFA500" stroke-width="2.01923077"></path>
                <path d="M42.7251145,18.7751832 L42.7251145,28.3116468" id="Shape" stroke="#FFA500" stroke-width="2.01923077"></path>
                <path d="M28.8930886,19.9102801 L28.8930886,29.4547852" id="Shape" stroke="#FFA500" stroke-width="2.01923077"></path>
                <path d="M36.0118977,19.4556228 L36.0118977,29.0041487" id="Shape" stroke="#FFA500" stroke-width="2.01923077"></path>
                <path d="M2.19857595,13.8698326 L2.19857595,23.4062961" id="Shape" stroke="#FFA500" stroke-width="2.01923077"></path>
                <path d="M5.38712407,15.6616567 L5.38712407,25.1981203" id="Shape" stroke="#FFA500" stroke-width="2.01923077"></path>
                <path d="M9.5738175,17.5060603 L9.5738175,27.0425239" id="Shape" stroke="#FFA500" stroke-width="2.01923077"></path>
                <path d="M15.0610626,18.7751832 L15.0610626,28.3116468" id="Shape" stroke="#FFA500" stroke-width="2.01923077"></path>
                <path d="M21.7732578,19.4556228 L21.7732578,29.0041487" id="Shape" stroke="#FFA500" stroke-width="2.01923077"></path>
                <path d="M27.9106659,5.40393661 C27.909709,5.08840177 28.0915383,4.81827627 28.4499778,4.59371746 C28.8003949,4.36918037 29.2179137,4.25965 29.7096332,4.26516474 C30.2010794,4.27067383 30.6412365,4.38969617 31.0356075,4.6222207 C31.4383512,4.8547398 31.6720807,5.12886449 31.7307275,5.44439392 C31.789555,5.76016762 31.646439,6.03005973 31.2951057,6.25461855 C30.9355555,6.47915564 30.4776273,6.58857182 29.9283613,6.58305731 C29.3787478,6.57756429 28.9004246,6.45863983 28.498655,6.22611531 C28.2308086,6.07109896 28.0348123,5.79703939 27.9106659,5.40393661 Z M28.3944394,7.955015 L31.7867173,7.9869267 L32.7678854,13.5635291 C32.9320788,14.4776469 32.3726029,15.1992764 31.0477443,15.7283797 C29.6648901,16.257434 27.9252936,16.5151922 25.8747643,16.5016108 C23.8262235,16.4880402 22.0292582,16.1871323 20.536048,15.5992559 L22.9905949,14.242897 C23.8202467,14.6085037 24.7069349,14.7945826 25.6331162,14.8011503 C26.5599881,14.8076963 27.2704957,14.6927294 27.7578455,14.45695 C28.2362396,14.2208396 28.470701,13.8906706 28.4678303,13.4663074" id="Fill-1-Copy-23" fill="#FFA500"></path>
                <path d="M57.7861771,9.95936703 C57.7861771,15.4605147 44.8480889,19.9187341 28.8930886,19.9187341 C12.9380882,19.9187341 0,15.4606178 0,9.95936703 C0,4.46224016 12.9380882,0 28.8930886,0 C44.8480889,0 57.7861771,4.46213706 57.7861771,9.95936703" id="Shape" stroke="#FFA500" stroke-width="2.01923077"></path>
                <path d="M52.430724,25.2702881 C55.8029635,23.6433159 57.782397,21.6498342 57.782397,19.495212 L57.7863886,9.95874845 C57.7863886,4.46564236 44.8523869,0.0115468531 28.8933,0.0115468531 C12.9342131,0.0115468531 0.000211480122,4.45358002 0.000211480122,9.95874845 L0.000211480122,19.5072743 C0.000211480122,25.0003804 12.9342131,29.4666414 28.8933,29.4666414 C38.6108627,29.4666414 47.190928,27.8154414 52.3910914,25.2823504" id="Shape" stroke="#FFA500" stroke-width="2.01923077"></path>
            </g>
        </g>
    </g>
</svg>